<mxfile host="app.diagrams.net" modified="2023-07-27T10:42:28.009Z" agent="Mozilla/5.0 (Windows NT 10.0; Win64; x64) AppleWebKit/537.36 (KHTML, like Gecko) Chrome/115.0.0.0 Safari/537.36 Edg/115.0.1901.183" etag="g-Uz-gVhgOxJqiu_1S1X" version="21.6.5" type="device">
  <diagram id="R2lEEEUBdFMjLlhIrx00" name="Page-1">
    <mxGraphModel dx="1240" dy="2330" grid="1" gridSize="10" guides="1" tooltips="1" connect="1" arrows="1" fold="1" page="1" pageScale="1" pageWidth="850" pageHeight="1100" math="0" shadow="0" extFonts="Permanent Marker^https://fonts.googleapis.com/css?family=Permanent+Marker">
      <root>
        <mxCell id="0" />
        <mxCell id="1" parent="0" />
        <mxCell id="4voXkl5ULgdugDF2-I-0-1" value="Doctor" style="rounded=1;arcSize=10;whiteSpace=wrap;html=1;align=center;sketch=1;hachureGap=4;jiggle=2;curveFitting=1;fontFamily=Architects Daughter;fontSource=https%3A%2F%2Ffonts.googleapis.com%2Fcss%3Ffamily%3DArchitects%2BDaughter;fontSize=20;" vertex="1" parent="1">
          <mxGeometry x="210" y="70" width="100" height="40" as="geometry" />
        </mxCell>
        <mxCell id="4voXkl5ULgdugDF2-I-0-2" value="Diagnosis" style="rounded=1;arcSize=10;whiteSpace=wrap;html=1;align=center;sketch=1;hachureGap=4;jiggle=2;curveFitting=1;fontFamily=Architects Daughter;fontSource=https%3A%2F%2Ffonts.googleapis.com%2Fcss%3Ffamily%3DArchitects%2BDaughter;fontSize=20;" vertex="1" parent="1">
          <mxGeometry x="250" y="510" width="100" height="40" as="geometry" />
        </mxCell>
        <mxCell id="4voXkl5ULgdugDF2-I-0-3" value="Name" style="ellipse;whiteSpace=wrap;html=1;align=center;sketch=1;hachureGap=4;jiggle=2;curveFitting=1;fontFamily=Architects Daughter;fontSource=https%3A%2F%2Ffonts.googleapis.com%2Fcss%3Ffamily%3DArchitects%2BDaughter;fontSize=20;" vertex="1" parent="1">
          <mxGeometry x="130" y="20" width="100" height="40" as="geometry" />
        </mxCell>
        <mxCell id="4voXkl5ULgdugDF2-I-0-4" value="DocID" style="ellipse;whiteSpace=wrap;html=1;align=center;fontStyle=4;sketch=1;hachureGap=4;jiggle=2;curveFitting=1;fontFamily=Architects Daughter;fontSource=https%3A%2F%2Ffonts.googleapis.com%2Fcss%3Ffamily%3DArchitects%2BDaughter;fontSize=20;" vertex="1" parent="1">
          <mxGeometry x="290" y="10" width="100" height="40" as="geometry" />
        </mxCell>
        <mxCell id="4voXkl5ULgdugDF2-I-0-6" value="Contact" style="ellipse;shape=doubleEllipse;margin=3;whiteSpace=wrap;html=1;align=center;sketch=1;hachureGap=4;jiggle=2;curveFitting=1;fontFamily=Architects Daughter;fontSource=https%3A%2F%2Ffonts.googleapis.com%2Fcss%3Ffamily%3DArchitects%2BDaughter;fontSize=20;" vertex="1" parent="1">
          <mxGeometry x="120" y="130" width="100" height="40" as="geometry" />
        </mxCell>
        <mxCell id="4voXkl5ULgdugDF2-I-0-7" value="Records" style="shape=rhombus;perimeter=rhombusPerimeter;whiteSpace=wrap;html=1;align=center;sketch=1;hachureGap=4;jiggle=2;curveFitting=1;fontFamily=Architects Daughter;fontSource=https%3A%2F%2Ffonts.googleapis.com%2Fcss%3Ffamily%3DArchitects%2BDaughter;fontSize=20;" vertex="1" parent="1">
          <mxGeometry x="210" y="300" width="120" height="60" as="geometry" />
        </mxCell>
        <mxCell id="4voXkl5ULgdugDF2-I-0-8" value="Involve" style="shape=rhombus;perimeter=rhombusPerimeter;whiteSpace=wrap;html=1;align=center;sketch=1;hachureGap=4;jiggle=2;curveFitting=1;fontFamily=Architects Daughter;fontSource=https%3A%2F%2Ffonts.googleapis.com%2Fcss%3Ffamily%3DArchitects%2BDaughter;fontSize=20;" vertex="1" parent="1">
          <mxGeometry x="380" y="220" width="120" height="60" as="geometry" />
        </mxCell>
        <mxCell id="4voXkl5ULgdugDF2-I-0-9" value="Treats" style="shape=rhombus;perimeter=rhombusPerimeter;whiteSpace=wrap;html=1;align=center;sketch=1;hachureGap=4;jiggle=2;curveFitting=1;fontFamily=Architects Daughter;fontSource=https%3A%2F%2Ffonts.googleapis.com%2Fcss%3Ffamily%3DArchitects%2BDaughter;fontSize=20;" vertex="1" parent="1">
          <mxGeometry x="410" y="60" width="120" height="60" as="geometry" />
        </mxCell>
        <mxCell id="4voXkl5ULgdugDF2-I-0-10" value="Is diagnosed with" style="shape=rhombus;perimeter=rhombusPerimeter;whiteSpace=wrap;html=1;align=center;sketch=1;hachureGap=4;jiggle=2;curveFitting=1;fontFamily=Architects Daughter;fontSource=https%3A%2F%2Ffonts.googleapis.com%2Fcss%3Ffamily%3DArchitects%2BDaughter;fontSize=20;" vertex="1" parent="1">
          <mxGeometry x="410" y="-80" width="240" height="60" as="geometry" />
        </mxCell>
        <mxCell id="4voXkl5ULgdugDF2-I-0-11" value="Patient" style="rounded=1;arcSize=10;whiteSpace=wrap;html=1;align=center;sketch=1;hachureGap=4;jiggle=2;curveFitting=1;fontFamily=Architects Daughter;fontSource=https%3A%2F%2Ffonts.googleapis.com%2Fcss%3Ffamily%3DArchitects%2BDaughter;fontSize=20;" vertex="1" parent="1">
          <mxGeometry x="610" y="50" width="100" height="40" as="geometry" />
        </mxCell>
        <mxCell id="4voXkl5ULgdugDF2-I-0-12" value="Marks" style="shape=rhombus;double=1;perimeter=rhombusPerimeter;whiteSpace=wrap;html=1;align=center;sketch=1;hachureGap=4;jiggle=2;curveFitting=1;fontFamily=Architects Daughter;fontSource=https%3A%2F%2Ffonts.googleapis.com%2Fcss%3Ffamily%3DArchitects%2BDaughter;fontSize=20;" vertex="1" parent="1">
          <mxGeometry x="600" y="260" width="120" height="60" as="geometry" />
        </mxCell>
        <mxCell id="4voXkl5ULgdugDF2-I-0-13" value="Appointment" style="whiteSpace=wrap;html=1;align=center;sketch=1;hachureGap=4;jiggle=2;curveFitting=1;fontFamily=Architects Daughter;fontSource=https%3A%2F%2Ffonts.googleapis.com%2Fcss%3Ffamily%3DArchitects%2BDaughter;fontSize=20;" vertex="1" parent="1">
          <mxGeometry x="630" y="460" width="130" height="40" as="geometry" />
        </mxCell>
        <mxCell id="4voXkl5ULgdugDF2-I-0-14" value="Na,e" style="ellipse;whiteSpace=wrap;html=1;align=center;sketch=1;hachureGap=4;jiggle=2;curveFitting=1;fontFamily=Architects Daughter;fontSource=https%3A%2F%2Ffonts.googleapis.com%2Fcss%3Ffamily%3DArchitects%2BDaughter;fontSize=20;" vertex="1" parent="1">
          <mxGeometry x="110" y="500" width="100" height="40" as="geometry" />
        </mxCell>
        <mxCell id="4voXkl5ULgdugDF2-I-0-15" value="ID" style="ellipse;whiteSpace=wrap;html=1;align=center;fontStyle=4;sketch=1;hachureGap=4;jiggle=2;curveFitting=1;fontFamily=Architects Daughter;fontSource=https%3A%2F%2Ffonts.googleapis.com%2Fcss%3Ffamily%3DArchitects%2BDaughter;fontSize=20;" vertex="1" parent="1">
          <mxGeometry x="190" y="580" width="100" height="40" as="geometry" />
        </mxCell>
        <mxCell id="4voXkl5ULgdugDF2-I-0-16" value="ID of last" style="ellipse;whiteSpace=wrap;html=1;align=center;sketch=1;hachureGap=4;jiggle=2;curveFitting=1;fontFamily=Architects Daughter;fontSource=https%3A%2F%2Ffonts.googleapis.com%2Fcss%3Ffamily%3DArchitects%2BDaughter;fontSize=20;" vertex="1" parent="1">
          <mxGeometry x="350" y="580" width="100" height="40" as="geometry" />
        </mxCell>
        <mxCell id="4voXkl5ULgdugDF2-I-0-17" value="Number" style="ellipse;whiteSpace=wrap;html=1;align=center;fontStyle=4;sketch=1;hachureGap=4;jiggle=2;curveFitting=1;fontFamily=Architects Daughter;fontSource=https%3A%2F%2Ffonts.googleapis.com%2Fcss%3Ffamily%3DArchitects%2BDaughter;fontSize=20;" vertex="1" parent="1">
          <mxGeometry x="560" y="530" width="100" height="40" as="geometry" />
        </mxCell>
        <mxCell id="4voXkl5ULgdugDF2-I-0-18" value="Date" style="ellipse;whiteSpace=wrap;html=1;align=center;sketch=1;hachureGap=4;jiggle=2;curveFitting=1;fontFamily=Architects Daughter;fontSource=https%3A%2F%2Ffonts.googleapis.com%2Fcss%3Ffamily%3DArchitects%2BDaughter;fontSize=20;" vertex="1" parent="1">
          <mxGeometry x="520" y="440" width="100" height="40" as="geometry" />
        </mxCell>
        <mxCell id="4voXkl5ULgdugDF2-I-0-19" value="Time" style="ellipse;whiteSpace=wrap;html=1;align=center;sketch=1;hachureGap=4;jiggle=2;curveFitting=1;fontFamily=Architects Daughter;fontSource=https%3A%2F%2Ffonts.googleapis.com%2Fcss%3Ffamily%3DArchitects%2BDaughter;fontSize=20;" vertex="1" parent="1">
          <mxGeometry x="700" y="560" width="100" height="40" as="geometry" />
        </mxCell>
        <mxCell id="4voXkl5ULgdugDF2-I-0-20" value="Location" style="ellipse;whiteSpace=wrap;html=1;align=center;sketch=1;hachureGap=4;jiggle=2;curveFitting=1;fontFamily=Architects Daughter;fontSource=https%3A%2F%2Ffonts.googleapis.com%2Fcss%3Ffamily%3DArchitects%2BDaughter;fontSize=20;" vertex="1" parent="1">
          <mxGeometry x="800" y="460" width="100" height="40" as="geometry" />
        </mxCell>
        <mxCell id="4voXkl5ULgdugDF2-I-0-21" value="Admitted" style="whiteSpace=wrap;html=1;align=center;sketch=1;hachureGap=4;jiggle=2;curveFitting=1;fontFamily=Architects Daughter;fontSource=https%3A%2F%2Ffonts.googleapis.com%2Fcss%3Ffamily%3DArchitects%2BDaughter;fontSize=20;" vertex="1" parent="1">
          <mxGeometry x="820" y="-20" width="100" height="40" as="geometry" />
        </mxCell>
        <mxCell id="4voXkl5ULgdugDF2-I-0-22" value="Out" style="whiteSpace=wrap;html=1;align=center;sketch=1;hachureGap=4;jiggle=2;curveFitting=1;fontFamily=Architects Daughter;fontSource=https%3A%2F%2Ffonts.googleapis.com%2Fcss%3Ffamily%3DArchitects%2BDaughter;fontSize=20;" vertex="1" parent="1">
          <mxGeometry x="820" y="110" width="100" height="40" as="geometry" />
        </mxCell>
        <mxCell id="4voXkl5ULgdugDF2-I-0-23" value="is assigned" style="shape=rhombus;perimeter=rhombusPerimeter;whiteSpace=wrap;html=1;align=center;sketch=1;hachureGap=4;jiggle=2;curveFitting=1;fontFamily=Architects Daughter;fontSource=https%3A%2F%2Ffonts.googleapis.com%2Fcss%3Ffamily%3DArchitects%2BDaughter;fontSize=20;" vertex="1" parent="1">
          <mxGeometry x="1020" y="-30" width="120" height="60" as="geometry" />
        </mxCell>
        <mxCell id="4voXkl5ULgdugDF2-I-0-24" value="Nurse" style="whiteSpace=wrap;html=1;align=center;sketch=1;hachureGap=4;jiggle=2;curveFitting=1;fontFamily=Architects Daughter;fontSource=https%3A%2F%2Ffonts.googleapis.com%2Fcss%3Ffamily%3DArchitects%2BDaughter;fontSize=20;" vertex="1" parent="1">
          <mxGeometry x="1180" y="-20" width="100" height="40" as="geometry" />
        </mxCell>
        <mxCell id="4voXkl5ULgdugDF2-I-0-25" value="Head" style="whiteSpace=wrap;html=1;align=center;sketch=1;hachureGap=4;jiggle=2;curveFitting=1;fontFamily=Architects Daughter;fontSource=https%3A%2F%2Ffonts.googleapis.com%2Fcss%3Ffamily%3DArchitects%2BDaughter;fontSize=20;" vertex="1" parent="1">
          <mxGeometry x="1200" y="170" width="100" height="40" as="geometry" />
        </mxCell>
        <mxCell id="4voXkl5ULgdugDF2-I-0-26" value="Is assigned" style="shape=rhombus;perimeter=rhombusPerimeter;whiteSpace=wrap;html=1;align=center;sketch=1;hachureGap=4;jiggle=2;curveFitting=1;fontFamily=Architects Daughter;fontSource=https%3A%2F%2Ffonts.googleapis.com%2Fcss%3Ffamily%3DArchitects%2BDaughter;fontSize=20;" vertex="1" parent="1">
          <mxGeometry x="1060" y="420" width="120" height="60" as="geometry" />
        </mxCell>
        <mxCell id="4voXkl5ULgdugDF2-I-0-27" value="Payments" style="whiteSpace=wrap;html=1;align=center;sketch=1;hachureGap=4;jiggle=2;curveFitting=1;fontFamily=Architects Daughter;fontSource=https%3A%2F%2Ffonts.googleapis.com%2Fcss%3Ffamily%3DArchitects%2BDaughter;fontSize=20;" vertex="1" parent="1">
          <mxGeometry x="810" y="280" width="100" height="40" as="geometry" />
        </mxCell>
        <mxCell id="4voXkl5ULgdugDF2-I-0-28" value="mode" style="ellipse;whiteSpace=wrap;html=1;align=center;sketch=1;hachureGap=4;jiggle=2;curveFitting=1;fontFamily=Architects Daughter;fontSource=https%3A%2F%2Ffonts.googleapis.com%2Fcss%3Ffamily%3DArchitects%2BDaughter;fontSize=20;" vertex="1" parent="1">
          <mxGeometry x="760" y="360" width="100" height="40" as="geometry" />
        </mxCell>
        <mxCell id="4voXkl5ULgdugDF2-I-0-29" value="PID" style="ellipse;whiteSpace=wrap;html=1;align=center;fontStyle=4;sketch=1;hachureGap=4;jiggle=2;curveFitting=1;fontFamily=Architects Daughter;fontSource=https%3A%2F%2Ffonts.googleapis.com%2Fcss%3Ffamily%3DArchitects%2BDaughter;fontSize=20;" vertex="1" parent="1">
          <mxGeometry x="900" y="340" width="100" height="40" as="geometry" />
        </mxCell>
        <mxCell id="4voXkl5ULgdugDF2-I-0-30" value="Ward" style="whiteSpace=wrap;html=1;align=center;sketch=1;hachureGap=4;jiggle=2;curveFitting=1;fontFamily=Architects Daughter;fontSource=https%3A%2F%2Ffonts.googleapis.com%2Fcss%3Ffamily%3DArchitects%2BDaughter;fontSize=20;" vertex="1" parent="1">
          <mxGeometry x="650" y="700" width="100" height="40" as="geometry" />
        </mxCell>
        <mxCell id="4voXkl5ULgdugDF2-I-0-31" value="Has" style="shape=rhombus;perimeter=rhombusPerimeter;whiteSpace=wrap;html=1;align=center;sketch=1;hachureGap=4;jiggle=2;curveFitting=1;fontFamily=Architects Daughter;fontSource=https%3A%2F%2Ffonts.googleapis.com%2Fcss%3Ffamily%3DArchitects%2BDaughter;fontSize=20;" vertex="1" parent="1">
          <mxGeometry x="850" y="630" width="120" height="60" as="geometry" />
        </mxCell>
        <mxCell id="4voXkl5ULgdugDF2-I-0-32" value="Manages" style="shape=rhombus;perimeter=rhombusPerimeter;whiteSpace=wrap;html=1;align=center;sketch=1;hachureGap=4;jiggle=2;curveFitting=1;fontFamily=Architects Daughter;fontSource=https%3A%2F%2Ffonts.googleapis.com%2Fcss%3Ffamily%3DArchitects%2BDaughter;fontSize=20;" vertex="1" parent="1">
          <mxGeometry x="930" y="730" width="120" height="60" as="geometry" />
        </mxCell>
        <mxCell id="4voXkl5ULgdugDF2-I-0-33" value="Room" style="whiteSpace=wrap;html=1;align=center;sketch=1;hachureGap=4;jiggle=2;curveFitting=1;fontFamily=Architects Daughter;fontSource=https%3A%2F%2Ffonts.googleapis.com%2Fcss%3Ffamily%3DArchitects%2BDaughter;fontSize=20;" vertex="1" parent="1">
          <mxGeometry x="1050" y="630" width="100" height="40" as="geometry" />
        </mxCell>
        <mxCell id="4voXkl5ULgdugDF2-I-0-34" value="" style="triangle;whiteSpace=wrap;html=1;sketch=1;hachureGap=4;jiggle=2;curveFitting=1;fontFamily=Architects Daughter;fontSource=https%3A%2F%2Ffonts.googleapis.com%2Fcss%3Ffamily%3DArchitects%2BDaughter;fontSize=20;direction=south;rotation=90;" vertex="1" parent="1">
          <mxGeometry x="750" y="42.85" width="50" height="45" as="geometry" />
        </mxCell>
        <mxCell id="4voXkl5ULgdugDF2-I-0-35" value="is a" style="triangle;whiteSpace=wrap;html=1;sketch=1;hachureGap=4;jiggle=2;curveFitting=1;fontFamily=Architects Daughter;fontSource=https%3A%2F%2Ffonts.googleapis.com%2Fcss%3Ffamily%3DArchitects%2BDaughter;fontSize=20;rotation=-90;" vertex="1" parent="1">
          <mxGeometry x="1220" y="50" width="60" height="80" as="geometry" />
        </mxCell>
        <mxCell id="4voXkl5ULgdugDF2-I-0-36" value="" style="shape=stencil(lZdNctswDIVP4y0GJEiCXKfpPTITp/E0jTNO0p/bF6pL2YSkl8lOlvGJBPhAADu5eX28e9nvIr++nY7f978O92+PO/myi/Hw/Lg/Hd7saSe3O7l5OJ72307H9+f78++Xu8lyevpx/Dl94feZEwplgiL/Ob9g0vzvxdez+dPh+cpcKbbBvFBK2+YhUhw/H4QUAYUkjUCl3LaBGEjiAMREEgBQqI1bEqZatwGxEI0riFIAMZJGRQYgCRWwQirEo9OpwSjlRVhzJlEAVOJxS4UpA6CY0+OWSqYSAaDUeACUKQJAY9/xDCQYJS2UwwhUUiCNyt6HGikgQKiOUaqZIohSVZI8AkrK20CrlEagWT4IABqF0emWKAJpGFBGtbZMDPLBgCYe+J8h6ynKTDweddP+ZmuJ6vZkegTaMCAtgIacqP7k7BNI3waEBdBQXNXLdQLQCoVK9gDStwG82BIjIFOuPkoRiSl7uZpXUEx54XSBGdTyivoiOjhzeiwopm9BKxRSt4J0dW0d3DLlMtD3FMTggYLCOmvzygfGOZrUAx/cAjX7sKItreXorMfNa2CR1AUdRFtRHwyTqXmREIL0XVdSriIf1KvvKg5baqp1sQTW6+eAqYK4rLbSimpKoOwAhkmqVnLGMNUC1aRzBbmqiw1VXvY+WOUtIIWsV/DNgGUEAkLvFeZ2o8EuLhffAZXUO8d1gCm5lqn11ne9KUv9ppsB6Q3Ietun/XqfuzjtZWwdCL6xTAxrkHW2OmaQJHiVBUu5URpxrnvrgN2lo9MxQh+a9zkojmrXzSVDYY2zLtV1xrDPZa8Kga39vPbFXICzizs1kgJBsK/nsde6DXM3iQUoN+5l8jK4oRzmvtWLeUZzmC/LuJm3rUZnjgpg8CMYvqVNguzMA5rw+oV8MRcgyU9OwB+a28Nl2H44PD2dZ/Xr//1wbq/Og73c/gU=);lineShape=1;sketch=1;hachureGap=4;jiggle=2;curveFitting=1;fontFamily=Architects Daughter;fontSource=https%3A%2F%2Ffonts.googleapis.com%2Fcss%3Ffamily%3DArchitects%2BDaughter;fontSize=20;" vertex="1" parent="1">
          <mxGeometry x="177.03886267160578" y="59.91382432818318" width="34.69295504832795" height="25.102151820586993" as="geometry" />
        </mxCell>
        <mxCell id="4voXkl5ULgdugDF2-I-0-37" value="" style="shape=stencil(lVfZbttADPwavRJL7sV9TtP/CBCnNurageP0+PvSFTbW0tYUeZPlmV0ew0NTfHjbPr1uJglv59Px++bX7vm8neKXSWR32G5Ou7M9TfFxig8vx9Pm2+n4fnief78+XZCXpx/Hn5cTfs+8QNIuJAl/5hetkJZ/b77O+P3usMBXamHAa6WS1/Ec/QXKVAIgKOl4Q83EgCCFQh0IRYmBCzGSxpEQqLZ1QmJSHgg5EisgNGqjSamQ1HVCVgp5IMRGMa0TSqZQRoJ0r+7njYllIFjcCvChmg7SSOBu5F2CWhBHAmdqwCRtJKPT0rWyhvcXUAIeNDNoPN9eILwQe7wgvOlIHD4IwGfK1eNBfFol8edHdL72wrriFWioNcrFxTOjUg5m73iBUASqtgtUR5GSMMTLWGepX7jmsKuaRAUFtFAeBfRRRffxySc4k6DzI4Xm8IzwFm/vb0X2mB6LwzOIvxVMck2CEoi/3sRfumLX8HmMD/cKXbM/esHB/HIfLVdBJ1QA0TcUEywq4ESteTyyxzqmxzNoWKZPVocvuCDdrGSKyB4bMz5fAdljeHX4hu35HD74euQKBaH5RnCx9+D7Q6n5ChOlDFyuQmW8IaY+FdYGa3Sj25IAijhXimOQksKs2XKQR0LGbeh2/ShCFdSBuRjHPlcDDKttdW5yVLwFmjDbWMka4SzmQsntja03s/ta6ivcx15qiUbLBJWxFZl40TCupNnjEzi/+L3X8EhH2e+Yl2ICpZB8a1lM2/tJ7rN6eQFwQHp+lg4APPtZeQkQGB4fK/QiYQ1UZugL8QKfIN7tHrYeNZAAw7PHJxDPz34I/R9vD9evrpfdfj9/tC3/919p9mr+wouPfwE=);lineShape=1;sketch=1;hachureGap=4;jiggle=2;curveFitting=1;fontFamily=Architects Daughter;fontSource=https%3A%2F%2Ffonts.googleapis.com%2Fcss%3Ffamily%3DArchitects%2BDaughter;fontSize=20;" vertex="1" parent="1">
          <mxGeometry x="195.69585775422945" y="107.43188496322773" width="13.774484304203218" height="28.44581251808197" as="geometry" />
        </mxCell>
        <mxCell id="4voXkl5ULgdugDF2-I-0-38" value="" style="shape=stencil(rVfLbhsxDPyavRKUqBfPafofAeLURt04cNzX35fqYtcWbU9QoLfNZrgWyZkhNcnD+/bpbTNFfj8dD183P3fPp+0kn6YYd6/bzXF3sqdJHid5eDkcN1+Oh++vz/Pfb08d2Z++HX70L/ya45hC6kGRf88vtFDRv28+z/j97vUCnyjKgG+NuNzHByYOQ0BtFAMISBR4DAgUGghQ0joEFCHm+wGxkLYhICeSfD9AEulYpJRJQdJJlhMvAVIpy/2AHCjrGMAw6WxJ5yEgChVQ1lKpjEcKlRL4BWWSsQ+BIiCGBkojM5hKBPhIGhw+VIBPvkQMu2w8js1/H52nUmOHzwivnthGU8AJw9fq8AryDbzmt7aYGiqQ+g4LVXSgRm2kkFU4wQJlJxsKQDXWAI4OnwFDrcFyhUcEjVSKwwvKN3jrStSwAEJxeETQppSrq78AzXf8mG+khAjHvp5mGjhf9gJrWJDiBQYFn/x51gPexmeqV3jEn+r5wLi/jUp2eMUCzl6QaPIZ3o2NiOuvXl9CCevXDY20OPB/wVervzs/UwIJ9JExFsgmJwqwoeQsVyIsqY09dmNP8fYhy7Kx5tyWT9we3Xnp0WoSNhdAF6J61y2JKviFc1fXfcV8Gi04jXRMulrSwHiD+fgoZLOO+MHONTLPtKTI2pdJveIbZSBNy2B00j4MQY2ad4quPWCNxe9bXUtofaKaPV7hEuuc92LY3qaRt6KzuG+Two+anjDAB5Lg8WhZsdVqJGlvGEj4apR1QoDZd7V6dDMGDfjXW8THeHs4X1ledvv9fOO5/L+/4tir+Xokj38A);lineShape=1;sketch=1;hachureGap=4;jiggle=2;curveFitting=1;fontFamily=Architects Daughter;fontSource=https%3A%2F%2Ffonts.googleapis.com%2Fcss%3Ffamily%3DArchitects%2BDaughter;fontSize=20;" vertex="1" parent="1">
          <mxGeometry x="297.00926498702347" y="43.51535032060224" width="13.180831759694785" height="24.818326915197353" as="geometry" />
        </mxCell>
        <mxCell id="4voXkl5ULgdugDF2-I-0-39" value="" style="shape=stencil(lVjLctswDPwaXzF8iuQ5Tf8jM3EaT9M4k6Svv++qHjohIK+sm6LsmoQILBbcxZu3x7uX/S64t/fX4/f978P9++MuftmFcHh+3L8e3vG0i7e7ePNwfN1/ez3+fL4//f1yNyPnpx/HX/Mv/DnxnOQ4k4L7e3pRsuT6/83XE/7p8PwJn6RMA36q4txlfJNSB3zOUsNlvI8SwkBIRepECEXCuEJskvNlQvBS/Ejw4kjIYRI/rhBC/2qLhOj6jjvBT5I8IeS+gTPBS0yEUKXlgdD6HpdPLehjrv2rLeMncWMERRo55dQkJYUv5Axy6En2gZ/IfpA0U9B4khS5SsoaT/YzeX3EK/jYw7sSjxRqW/DVlCXFF7dtPyVI3RIvRMH5Lfgi3m3BN3E6f2K5jK+osDLKUH+xjEe+NYUPZD81SRj3D1Uk+Vaz1pQklShELTrfkni2f+TDuJ/YC24ZD9kd6yXI1IhKO50Pgat6MIIliey/QdXHfHbSGD5J0viJ7Sfr83V9wWU85FL/Po23df2+cv+ty9PHeRWOr2P9VvGkYQDfxvxH38wkIbw7B3hmICYiufMSY0miBiLp3CCU8QzQBxMpMhBUE4hpbYU4ZnWcaCMGwUVNYGaiVW1v0JoDJyihhplgnRKEOK4AqfPk5EAI41Gv1Zoh+CyJFb/ZUqMWzcacu1u48qOeHdiVp+bWikGlhevqcWXeBdqcbGIj63iaqsqBm2MLLBVn4Udm6n9uCDxmJTBQGFoJVsFi74lXSiRqbUVTvSnOFVHdSDBdAYTCas20HRCYD7F9bS1o0zghMJkRTGeGSDZmRUzrB4F5/QVvEamqWvMSQ6+QK90RCEzzrP2CqrIByvo79J5CatQaSBAcicE6VKhkZgRjgUGIJAbrsdcIxsSvEcyUsEKwY0hotEPbOWeNYAapNYKZ1FYIdhScCSS97aw5EzYNszOBpIadlkFIpKbtOA7CRAponvfHoOf0JjHMFwpVExqJAbLlxxigGuwKYv49JZWVHtw8oqkZKUkm2QpbUccCypBnQkCTjeMKyK5KgobJjmpMddyLSVNjc6XWKumLo+bpOWMqGr/pJytxgZDG+pydBMVra9ioF3O6HzY++Dvd0tu5+i7gVSGgA3tSzE5rKvopu1gzRgzNjpUy8KNWoHWxhAB+bDvVU0eC76Pu4Ro1JE57f7QhNuW5Ht0Zf1bwC/ht18XreDx83E0/HJ6eTlfbn/+v77Lx6nQPHm//AQ==);lineShape=1;sketch=1;hachureGap=4;jiggle=2;curveFitting=1;fontFamily=Architects Daughter;fontSource=https%3A%2F%2Ffonts.googleapis.com%2Fcss%3Ffamily%3DArchitects%2BDaughter;fontSize=20;" vertex="1" parent="1">
          <mxGeometry x="310.3852932042954" y="83.60735470977875" width="108.60285874791089" height="5.130179955835199" as="geometry" />
        </mxCell>
        <mxCell id="4voXkl5ULgdugDF2-I-0-40" value="" style="shape=stencil(lVjLctswDPwaXTEE3zyn6X9kJk7tqWtnHKePvy80GioGKa3smywvRAJYLEAO7ulj//K+G6z5uF7OP3d/Dq/X/eC+DdYeTvvd5XCVp8E9D+7p7XzZ/bicP0+v0+/3lxE5Pv06/x6/8HeyM5TsaGTNv+lFyuSmN98n/PFwusF7CqzxjiKv4xOFqPAxUUnreGayRhsYYrAhDu2OgnwirxuIy42Bt2TACjZQCcrAWQrAB8eUtIF1ZDwwSJSTMhCvYgRZ8MRFGRSywIVgyGp8IAc8CJHYaZcpAQciVxJ84U0A+EhRZ9lSAv4mSalv8BHsJwVK3OBDAfhSP3eDB/HJjjg9go8tq22ti2V8bglhyZl1fOH690wgSg7gHXldlgZWZSnE3OAN2k8hVxo8ypfgY1Mx5EENCz5rvPAZ8E3wRcczUwHxYTP7NwfU1iVXV9AM4kgJhyjpEI0xxTkIDSekCFCSS0sKUW8DqkAMDLcGkHa5qsKN0FmU50yh2RKTQT7M3WgOq2gl8iGT1crFopUocb2BiCXoaP2WIuZq57Mjh2PUBJWrGN+ZtU0eNbSYm8OdvJvb253E3iBRVzmJIojnUm0yBRyh0rVXj11o5IULpmmvX4xp2gnk2GHxCtzX5kOSvWXQ9QTZkn+o6Wx05YWuZiFVF9qmhBXU5kJfFgMwGC00fjEAeViYLMTgsdGFqQAfxtmIuyhtDF+2NUDdcJzuukyjcU3GR9cYeIqA3t531BAVBCvIBFx0PbgAh3KZsYt2WqZ4D8Jqu5E2WFjT49FI50ECjYZIEZWkV5DcoylJZMtramSRNiB9iVIzxWSYaF8PEfMpwUMPTHcMMXjOM1Wp5wVmMV/BN61Q8BY4ILzTES349Gi6Y1Gsb1bwptm/qzxcw2vSiQYGwNKuU0nCCoyn0f6KAqLeKf4233c1hSt4qymdcS/v6n4kKMSHpgIybIOP3j5s4+Xh66rj7XA8Tjclt/+3VyPyarpWcc//AQ==);lineShape=1;sketch=1;hachureGap=4;jiggle=2;curveFitting=1;fontFamily=Architects Daughter;fontSource=https%3A%2F%2Ffonts.googleapis.com%2Fcss%3Ffamily%3DArchitects%2BDaughter;fontSize=20;" vertex="1" parent="1">
          <mxGeometry x="535.2740581793369" y="82.07418601949576" width="78.9740662828654" height="5.773971303669138" as="geometry" />
        </mxCell>
        <mxCell id="4voXkl5ULgdugDF2-I-0-42" value="" style="shape=stencil(lVhJctswEHwNr1NYBtvZcf7hKsuRKorlkpXt9xmEgSwMyKZyo8RuYNCzgpN/eN8/ve0mZ94v59PX3c/D82U/+U+Tc4fX/e58uMjT5B8n//ByOu++nE/fX5/n329PFVmfvp1+1BV+zTxLwVaSM7/nP5hs+fvH5xl+PLzewANx7OCe2K/DraHs1PKcAJ4pOr0+MMcWsqzw/xZYxMv2Lip7ogX4Qpw7fCAPzuuZUlT4HNbxbJraDR/JgfU5kHUaD/ThQlHbnw1wL5MpCu+AniG37T/0DEDP6Mj24eYpMMAHKj3eNYGX8eKvXh8L9U+OYujwErAZ4AOlpPAG6JnywvpAn2zJszovyq/sqbDSn4GeOVIwKn4iOG8p2p7goQOEoASKcmIQoUIoKgMKDOlK6HcQkQ2oKdWkPoZEBQ+cIATXO614siCKinjZ94QEw0heFxWmBgeSMGyfyGVDpqgLewkw9OR16UtXFqXRqQPFPpayI4/OMDSPJNUaeS5Q6AmRm/PXCFmVL9ENmRSJe5WCoYL9YPro47TluKQq5IYfMgWnd0A9UwLBqp5jYZEXgipKUsY9qBo15foqEK+6rbT9azRfXR2alWtbqEFBSttGZWKVc5YMIuTWCa4ESRFMULpW4bCrVfOpp0K6RkqKkNp8skZQ7b9IQwX9YZmAG4QeACSAcQdSOSozBDJJWpzpTZKUQ36Q8s6qx2GVxibNDB03TgHsW8+4c8xgmUtArRznGLYwNMZBSQgG7LAwiZnmyjtHPS/NHvhhnCV9hnVmHFaFgBrEOA1XAih947gthARkHed5OTSKpfHCIIQCVBpvJHIq1LPGK494GvWshTuVaULfd2erGyCLhiuhIUYGDXewAqcf06Lm1sugYhg9s3p8qTKDyxwsMEYngsutLq/he3vq0I3XV3jTkvs+e2zY0FOd1zoycH2lJ86ZwV0RZswQDQzF/M/vD5twefj41PFyOB7nLyW37/WnEflr/qziH/8A);lineShape=1;sketch=1;hachureGap=4;jiggle=2;curveFitting=1;fontFamily=Architects Daughter;fontSource=https%3A%2F%2Ffonts.googleapis.com%2Fcss%3Ffamily%3DArchitects%2BDaughter;fontSize=20;" vertex="1" parent="1">
          <mxGeometry x="708.5737016041976" y="62.40041307288993" width="43.97062569685027" height="3.6854668905352304" as="geometry" />
        </mxCell>
        <mxCell id="4voXkl5ULgdugDF2-I-0-43" value="" style="shape=stencil(rVjZbttADPwavxLc5Z7PafofAeLURl07cJwef19ujZW9lDWGgb7pmJF4DUlpJU8fm5f39crzx+l4+L7+tX09bVbyZeX9dr9ZH7cnPVrJ80qe3g7H9bfj4XP/ej5/f2nIdvTj8LM94feZxyS1kTz/OV+omWr+d+XrGb/b7q/wiXwc8UI+LeOd3nYDoSRM0PePFhWmDCzyQoEHQg7wDb4S54GQMnleJkigMjodK1VACM46HT2JAIIaUAZCiNROlwhRiEenZfLqNiFT9iNBKBWQaLV4NKnFDfiQEqUxrD4SAx8yk0sjwVGIgKBOjwRX+pXbhEhuNMkFqsCHnLvFE8HDsOZCeTSpUgB4reUyviCTAzEqQmJKD8a0Rgpj5TG0vyaK2eJBZddZGWkSQUBrmeNDAHgNXzH46iC+jv46GP+GN1VNDFSgeFvU/cISnkd7pJfgUny4GHxE8Um9O1/wGcU/UuFH8IFSfcQesfV/x1+9zY/E01N+KF/etmrXC2rJHv9QvQXiYOsZtCyN/wwP9ZLIWXvu6NH0hzt6L/P+IKif1D5KL/iM9VusHj2Iv2O2g8xRwYI0L/A4wTMHpCt0MUBmTlJACZslQLqC/gu+VHKjvxmOvKICNglgSqBCi6doFKMaBSkuU8VMhEgVTeHcW85EqH0/uk0IXVNTjrVLoLGtLppNQnUEoqq7ill7heEcTlqVo451KURh1X3LNPbAvfXdJrg+GCfC1Atu74zR7r1RoNbahjg6nbhPh9sEXT5Gk1KBUdLaNNMj4zVW8yqjD8XBZV+/DoL5Osg9DAsNxja8NuLQKm5d0A4ioJSC9aCtDOD5YvtX62gQ74PFV1B4k1Iu+scjxNuVt70ApcDWaXMA4HWgzp6fgT1McRZQtNJxV/oVHmmfZ/4WKhjPFh+xPbPne5CwR7/A7+P14PK5/7bd7c5/C67v298Deun8a0Ge/wI=);lineShape=1;sketch=1;hachureGap=4;jiggle=2;curveFitting=1;fontFamily=Architects Daughter;fontSource=https%3A%2F%2Ffonts.googleapis.com%2Fcss%3Ffamily%3DArchitects%2BDaughter;fontSize=20;" vertex="1" parent="1">
          <mxGeometry x="793.9427602439846" y="-3.2167349375511094" width="24.69217672554098" height="47.511872338555655" as="geometry" />
        </mxCell>
        <mxCell id="4voXkl5ULgdugDF2-I-0-44" value="" style="shape=stencil(lVjZctswDPwav2JIgudz2v5HZuI0nqZxxkmvvy80GtIEZG3aN1vCkgQWx1IHvnt7un89HoJ7e7+cvx1/nR7enw786RDC6eXpeDm9y68Dfz7w3eP5cvx6Of94eVj/v94vlsuv7+efywq/V1ym0hZQcH/WB57q+uDLav58epnMC6WizOVB2DevFLxenYkLsq9R28v6cd++EbOyD4FyRvZFH192dG7f3jsqQQGYKYL4+EDOACplDwBjvQ6I8gQdKfWIDEChwgBQyesjJU8FBDU4akkDEoUKAJG8piFhpyVralWA7CmBsPI48QDIngiQLQ+5kAOA6Cjq1MiNUgKASCXrUvA9e28DGjntdGFqoBiSvHYakCkBpiXqxociTwBxWVJN12d1kIdce/kOQOgVcrtfSL3rXKoRRklObEq6ZhilKjsYHxp5kHytWh5aIgeYbmO9CQC7zKbNtEwRlahzvQ0NRCEGXWDZQmefuOVBmATgmgU01FprD8oANNyLZZRsAA0RkSzVUxxuI7gfedqioi2C7d8CYMS1t/NQ4pBBCQkgGK6luaHkEIChWhIc1FwbrXECeEREIDaARBEUqYQ1aSJahCrg+noCoIYvJ+awAaAjFcrFAhpKDZEObuM0qDlJhLzhweOqbqZvyEhBTrdNlMbc2wPwpqgLdjoa4sYSe2G1yfdBAaX++p9rNG6yr2HmeNOZGhxzAvAbJxBgmSmmgWMVt0wt02d8f7I7F3VuyBAKwOll8uqCqAUOoTQm+TxIgQ+iHpKZvAHqxLj1wcG2IULVNPxSqAEAS0w000XELCgIlsGseRBmUI2y651xAFzn/rYSTX1ETTqRgQ/L/Ug7LUoUpYbcYKx0dVTBDj72K9VQ06Ur+NsAb4eccB9Qc7VBEurRiYqV96J9kcJKVpssxAP7SFGfhxlKE/FOr7/cMxFnPe+nWyIqnUBBUywcoibpu0CdbrlIM3irrHDZbLRhgNLQ2ZuP75NxxzwYEQYLxlHW5pLMQHb6fku7mid0ue2LXc0xsTkZc9RD2V6P8CSL/dI7maPrmu1VrqfpXpF4GxlgninY1VGJ5C7HJlbRve7/vgJ9aC4/rh+cHk/Pz+v3qvm9/UAlj9aPW/z5Lw==);lineShape=1;sketch=1;hachureGap=4;jiggle=2;curveFitting=1;fontFamily=Architects Daughter;fontSource=https%3A%2F%2Ffonts.googleapis.com%2Fcss%3Ffamily%3DArchitects%2BDaughter;fontSize=20;" vertex="1" parent="1">
          <mxGeometry x="798.2556555131453" y="87.34918094400882" width="22.334502539447133" height="36.3501319724959" as="geometry" />
        </mxCell>
        <mxCell id="4voXkl5ULgdugDF2-I-0-45" value="" style="shape=stencil(lVhJcttADHyNrlOzL2fH+YerLMeqOJZLVrbfB1MMKQEge6QbRaE5AKax7sLD5+vTx37n7ef5dPy+/314Pr/uwped94f31/3pcKanXXjchYeX42n/7XT8+f48/f546pL96cfxV//CnwlnTaod5O3f6UV1xk1vvk7yb4f3K/lgfJLyEcgXk6yUL3Zb3lnTsgTUDADJWAVoBQCaqY0D/PyJVYBPxmUJcB74yJrsFQCcENIaoG0DojVBqeSBSjGaHBUgAECdr/UakLYBiTTWJyBAWrMBeCmRSlYBwE3nhcq3AoIpihoQkI13dwHIhnAPoFgVQARAAedNEFyyMIBKNJZfXKmmAfKVZAo/oRRjQUzT34EbTWc2wNaugDjBwYgjEzO/B7qZDNxKTgzcaCJLA/FQyUucGomMRieQlzj5KEIsiIdKXuKAmOdMtQ6opnIbQpuT5yqgqawRcJpplHq5WykX/nf0OoDKA2crZdsSASCaxFVyEeallkwtnBqzjuvyTSZvC7lK8tEJ+YC/LxIr+QyEJ8lXHgvkAUAjkm+i4ELaObvYtyjk5wDfPIF71OURoIo7azDYuo84s703CYRCvwRuNHkpIGY3mYcJgMK5VdlmEAD1PQQoUdrgETHqfK9XXkIlmgBRAJJJAwD3kqNeDIUzqcS9VDD3quQ2+Qhdm0pIzmQca5ZbbHE6arK0Wdi4kbxMLji3UK7i+oRhbHJ98uyATXleQ6jbzdhgCYimYAuaCH6684HJgtZupFLi+YuchKpUD01uA7FokCHvBOQ5Q1+VNYuMjvLeQsVJPkgixYCZutTVBVBnq7ZKs+wWAmzC6pJMrhqYjBqYIoM5Vzi5VaoCogkLsD+nFkncA/VxDqnkpVtrmM/cavOq6G0LjIfSZNfWMDWoVRXlnxqOAGK6N8PihIwHYtVItgKLYW/oeZpvyyB048jQqx0A6KGkA0A86LFnBFCD1QigRrcBQA+HI4AaP1uFQ4kecDvgrhF6BFBDegcAaug1wKWvuXHR0PCsp1cZvWgDL+llSQeg/Y1ax/SWHZygFz6X7u/GldKlkbhtZ9X70Xt2Yr2qgnhTO7erpn0DEKM6ABDJykQ8oLaV1YpSEqolJC8clEwDSdLOOXeRDzAQ1AhDg2iB+gt5qo4RcE7pQ2UEraqUvTTce2iv8CfVNZTi1X0NNmGKD30JC79/35J3LE8Pl43yy+HtbVpIX/8vN9D0atpeh8d/);lineShape=1;sketch=1;hachureGap=4;jiggle=2;curveFitting=1;fontFamily=Architects Daughter;fontSource=https%3A%2F%2Ffonts.googleapis.com%2Fcss%3Ffamily%3DArchitects%2BDaughter;fontSize=20;" vertex="1" parent="1">
          <mxGeometry x="920.1673467892556" y="3.834217621199059" width="107.29923542626541" height="6.683571540328204" as="geometry" />
        </mxCell>
        <mxCell id="4voXkl5ULgdugDF2-I-0-46" value="" style="shape=stencil(lVjJblsxDPwaXwntyzlN/yNAnMZoGgdO0uXvOw8Pck3Kb5rcvGgkkRySQ+3izevj3ct+F9zr2+n4ff/rcP/2uItfdiEcnh/3p8MbPu3i7S7ePBxP+2+n4/vz/fr95W5ZuXz6cfy57PB7xXlxbQEF92f9oTaJ6y9f1/VPh+eL9UVCtOtr3F7vvdRiAZ0c4LPk6UYubwOCkxQ0oEgJBIATugYk6WUbEOEkpwFRPLEhlvH3GeAlkhOSl1AVoHTJjgCyNO3WUqnR2YnPGpClJgJI4rXRBV4ikc5VUtKASCNdnERjtJdOIo39nLYhw0vEaJhYNFtxSUfcWkA1bQPckMiVqpOgI51hAzmhhrHfAKQusRNAkqwjjdg7EoeF/RoQO430kpA6DjHRwDVvjY5OSiWAKFWnaOAp2oo4faUQRiivA9ogwgD4Ro3uTprXgCiNxKFXyQYgnZjQJyohA9n+zVYlUIsQqXfx030IU7E+m+SRwNc3vb6PSn69bjtnqyRKuWMe6pZ3SynnVzK9ZCnlngKS9hGMKOwEpIIOWgz8Sk2SNjpGymzQyLgVAOqlKtEA3Mim64AyeHCRbJ1kJwBV24Bk88xoJK+hHrb41AmQBYmRu4yGfG4NIzs2nWSYMfrjZhT0ejdUxwfD7GgfmXnkqWCYiZr4/n34e6xv4pm9U6qh2gVComvZ3EZf+WC9CJF2wqUgaR/BiMSz2SgSCLPCWPFpAFipazB6LSt6rY9WfC6qjgOQOvpKEBiZ9KmWJBhF0oZW3GrOzciwMDrR9faPOBgZBnHJJEyddBvoSAJXs21VEDWJaZ4w9rucSpjmcbb9wyqmFyD0gmZrc4O/W1Ky6cC1QOs2xGowgDhmrS05nKoFsARaBLcuYiALmzIWSZ8swLMTnJ32AOgk0kgX03tA+EbIh8EnmitBt/HRygQOSo6RbxnetFt7oBoAmqKYE9LIkM0BVFcNtK/EZuJpLEG/8MRL8xC9NAw2x9i4da57pleAi/p/FYBkCdMBJKOdHephMauTzvZzdOxAaHHW1uf1mRYMWGf25yps6obd0Qo2rW9QHPT+5j4tD9n3MXtbpI8kkz/RJljmT/Fa6inJsokPKNiMD599dvr/enz498b1cHh6Wp/ILv+3b2L4aX1Pi7d/AQ==);lineShape=1;sketch=1;hachureGap=4;jiggle=2;curveFitting=1;fontFamily=Architects Daughter;fontSource=https%3A%2F%2Ffonts.googleapis.com%2Fcss%3Ffamily%3DArchitects%2BDaughter;fontSize=20;" vertex="1" parent="1">
          <mxGeometry x="1130.8336643710625" y="1.1426681576826923" width="57.604017178887766" height="5.819892911260922" as="geometry" />
        </mxCell>
        <mxCell id="4voXkl5ULgdugDF2-I-0-47" value="" style="shape=stencil(lVfZbttADPwavxJ7k/ucpv8RIE5tNI0Dx+nx96UgbCxS9jh5k2WOlscMyd3ku7fdw+t2k8Lb6Xj4uf2zfzztNvnbJqX9y2573J/0aZPvN/nu6XDc/jge3l8e59+vD5Pl9PTr8Hv6wt8ZlzKlPKFS+De/iSTzi++z/fP+ZWmfqDVjz9QZ2DPFbr9fqMTrgByp2ANip9QAoFBPBpAqpQAAQtmeoGfmfh1QIvVoAUwCXCqVqk1qyeMTlwGdWrCATqVcB9RIbGOohZoAQKZYLaBTrgBQKIoBtDycvAyoFG0MjSkDKilAbOE4UgBZquyzxAVWWkNktgCmBCrdEgULkABjaMrNYgF18PcioAtFG3Sv1EHheiexhesNKrSvgu5MjABKZitRdbICTfcPBX8ANA0gBlGXggcwOEGKT2sMgQIoNYvnhh7RgYI4D80vAIjfWupYPADRtTXKwec1ITKpgqyotTRIowpYcwOxr8mg/4J9DZzAyY8HBaCgJ4G5GApMqySS4gEFcUOohNUJiN95JHEZA9Koziz2AE5QcoV9HSog34LNi1IXFIQQO83JoNdlQB2iX9IVRa1DUDyggSCk+YY/SQ6coL3UjfYJANoxa51WkmMkaj0heQCUHI+cLHsf6gLsJ8QNQG6+Dpo3CIgUbaU1bwy6a9IJsZpyDdQhiW/4OkcL6AIKKDaGaVIDQahLwUpu2gWQS30IbLltAJdy8L1Shz0S0ASwWdINR1DQGoPNku5kDNiqa2e1MZQCyaerdnV7pYyoLrcNHkvhYnNl0I1j9v1+chIErWqxHuny3dDC5NWg270Ah8JYLD53e1h1SXw50V3NbQ1wr49jtRvmAV9l/D0jUEPb6lDI2TyjwTmawtk8osoGXym8HykTwpfsV+Pjhj+y9geFe/77c9nUYnWfH1is5Hsc5sKX78E37fXhfOl+2j8/z3f25f/+kq6v5gt+vv8P);lineShape=1;sketch=1;hachureGap=4;jiggle=2;curveFitting=1;fontFamily=Architects Daughter;fontSource=https%3A%2F%2Ffonts.googleapis.com%2Fcss%3Ffamily%3DArchitects%2BDaughter;fontSize=20;" vertex="1" parent="1">
          <mxGeometry x="1242.7826110479564" y="21.662535649980782" width="5.8185629194943225" height="36.623518663667106" as="geometry" />
        </mxCell>
        <mxCell id="4voXkl5ULgdugDF2-I-0-48" value="" style="shape=stencil(lVjZctswDPwavWJIgJee0/Q/MhOn9tSNM457/X2hynRM2FlKb7KEJYlrsfQgD+/bp7fNwO79dDx83/zePZ+2g3wZmHev281xd9KnQR4HeXg5HDffjoefr8/z77enyXJ6+nH4Na3wZ8aNI7lxQrH7O7/xlNP/F19n+/3u9do+U8iNfaKE7BOJtOt7ihEA9ECpBUTy/nOAd46caxEjscAtYrsFC+UAAIVS6zQXCuBMGqXzehUgQh55nWhswySZRgaASJkbQGAqKBGXKF4AuS5xHxAot5URmSKKUiDXOh0zRQcAQlzaWtIdUFiZXBulpD4ggK9pqoCsUUKlweRbH3KmhHaQ+rkCCteO+iwPpuFKooCL71w5FaBvGGc6iQUUkOlSbI9qhwhwWmPi2AIyyLTmtRQLGIHTWptiaOmjze8iRDOX7RbnTe/zxiUoV4AIMldsT6u9B3lgGrNNQwK1pw7cpM1lEFSSlvaUdSJYX3nURQtwyAHlegNIkDKUgpgtAFGGEkRxawDavoa6O0cqgca0xmlt6OzXhFU/l5s8o7xNB7hJNCoMZTE2PuDKK/5OL6DSVhot3gJQ8+goSGbm9voz2/nToYA7/YNJRoVFugkTorFAkmweEE96KquIeK29lqoZJXgyJMuRndGTq0BYONtKrZmFwzPbhHWmc7ISpjP+o23ljr6IxG08OwImUGn97SikYOVLR4JJpYWFGo9t23dEpLdjvKNSXa2uhTJ4rc52tb8XKnmxKrtzVeDKy8uuIs62F77p8M3FhQQ2ozmMg+zmVftGY48YelIH3tgLlkOmeR15YB9UvBdjj+g8xlq6y+yVCoI9PzqPUlOx50f+KlXmNfHUMW/usThfOrRtccJyWH2v7trrw8cl/mW338//AVx/t5d+fTX/YSCP/wA=);lineShape=1;sketch=1;hachureGap=4;jiggle=2;curveFitting=1;fontFamily=Architects Daughter;fontSource=https%3A%2F%2Ffonts.googleapis.com%2Fcss%3Ffamily%3DArchitects%2BDaughter;fontSize=20;" vertex="1" parent="1">
          <mxGeometry x="1284.4811648466366" y="121.15307004556075" width="1.5098077578987714" height="41.71559142839265" as="geometry" />
        </mxCell>
        <mxCell id="4voXkl5ULgdugDF2-I-0-49" value="" style="shape=stencil(lVvZchU3EP0av6oktdZnQv6DKkxwhWDKmCx/n1Zc0h2dnnsmvIGtM+pNvRzJD/Lu++cP3x4fov/++vL8++NfTx9fPz/ILw8xPn39/Pjy9Kr/epD3D/Lu0/PL428vzz++fnz7/7cPY+X41x/Pf44v/P2G8y7HAYr+n/kDX//7wa9vy788fT0sD66mbXlwId5fLi7mbXl0Uu4vT07atlzx/f7y7GrdlieXwv3l1Ylsy7Mr+f7y7rzflhfXmWW8K7slm4tsfXRx/3532ZP14squ7diRbZCd3/UN6r1GAMXJLpHK2IiFQnUJRBLXEgE0V0Ck5BqJn9Bd3Y0altNPARq+DQK0uEqCQgO4A6DSsNCY9ABYWp0DkotlB6hW5BRoXKb9GKhWnYSGRmbdHafnLDAdqmu741QrdnTGYdh1UK0qEUm8i7vjVEhPrCTByW7WcV5JtEp0CXJLc5UoLapi37OL5jqWvJLLe7SqkJGEt2QM7yEk8bSUKfEC6ClnAHUc6JCmK88BJovpnp7okLwLoEN1kYRGWjZZgDZdeQ6I6GkVMhEdkkwjrjyvmY+ERlLH7TuokJUUkqSO262kQnYSGqnMHLEAyXm2Q50CLEB2QqI1dUwzY0+idPZOoBo258kOORiR+kw85wDBiqV7duLpnKbEC8DPQy5mB3GddQAVi2LOfIc+3bQAhZas4l3aE1lu84ScA4IrsEOn56FEPNNjT6JD0VDbzap7JmKlkjEZ657M00U7ARBJOMCEtwpZSNYo3UXQIU8znDdvWtj3JKB7RiJSjbOdWgCtD8RxNbmwnzjdMzCRMipdAy2KtWIsVXGBeLpqtIYdoKmNiNRMElAhWX1oAUuWCumJDk2jdTdrbbM3OAcIdmRDK5Jb22oJDwCWZlrGJlHNwJrEVlzerTTMQKK1mdFBzcCak7ZS7wKop5lZG7Zww24M0OdotAB8+lEApBm1G/N099hgKSATsyqg72daDR0YIOARVQCbUHrEbmZ4hs1wJgkooJMk0MXs0FxmO4jZodMz3VdFOwBYtPaEfasamhUUBYAfFMDmuK41cw9v9YwwK2lSMQDWYHUt7ACItKtUAHRkw5XMrDqdZwSwgtIr9q3qGZbuFQBt6PA908E0JwpozKza3YPjEu01esNuZgQLs1LDTkABLM0oQACQKeMzAA0BiQVfwzSjADYeKwBOnPqe9d4D0BAgHFAMgJEICgAmSl3Jpl0FNANgBUUBkDUUwLqZ3nGOG8HCduiTrjoAEksz3ZyHNtnBe4AOO3Q67QbvMRsr4mqLhgBGMA2AGACLjW5SX5+Z5x6gGh3YTKO/zsAX3exw1xPxJ7cQKxNXAsnKSzNBM33tiGB0uHB1yAhgfOjQwXiucLOK0YH2Ah350AHgSpdgACzRdCSMBoCnARibBoCnAayjKuTFkesIqBdHzgJ4LFmR2FBzqjTt+s7M2rmVwHH/54ya2Lg6oyb62AXEaXx3Hkz2BNE+8acBDWmyUcd4u4Gd6EX73ZBH0J8EXkgxMVWemJqpQZX3WHWqeAAE3ic2yAIXY1DFgVcBtMeq8wgfALSxrKb9zlPIe4Bsujh2nTUAZgfquGpCI812+R4AD1Di+b7Owe0AYBRTL6ah0eGODynAGCmAJteCl4oKoAOvBoJHAKNnbr3zYW6i6TvjFbACqEiL6D4MizQv2fk18BNn+P4bFXEP4A2A7iC4w6BT2A7mlrB1eh08xltgWxptjgcXYgCM7x9sCwAqvXdRAO5QePb2xkqFXuD3dQF3oJjYoKVGtJxUYNxgw1agrWC5B4Db2ia0d1Aj4r2/0FtCtQkScZE2fYNFA7MG2hqrTaC9b56eOLUJ8P0KYMNiW9fFB46WsV6DLwVius2R4h4xHWGHSu+0byTxApTJnp8DDC1QEzXrjRk/0PfCdsjztcvhgoD1S/o9KOyVU301mqugRvOSfi/tViqrrp4CimEqCr9A1u/h3VGi/GbJWEWL0AcVJeEVRIkcsC7VFyDQslsiUhvF09ZBvwdZI1/cpRqiIq/Ecw5oqEMutMbliuNAzlSHvGi3BUiU6tNfA4OaI98hmh0CfW2mv4YDlPrMtqeAZOic1Cipq7/Gm/9CCdFkusqU+euFgoksJf6gImMbmoQWdv1eAB0Cf70gWHaT50oHHGmk0wuz2/cWoFErje/Bw5ZKM59+D1gy4ZdN+j1oHYTff+n3ZHecCOUp9HsBdIiUaxFzkS+Bvo8U01WKp3OcmAuzuBqic4DH5iRWOsfFjtR3LPztWUPqJCZ6KxLN4BeFtnAqACTjGOkcF7N53RZojYuCJHDo/IVexCYxNDriqwDw9ixUekSjeacSCvV0MBxwyDRrqMSQyEKiFUglhvlBAezEhYzBF4QDkjFroE8F9Hv4FtPT4AvmkdTVlQUaqdH2yvag/HHR9NAqoJSVMZN3ohf4gjyr0KE4Im0VKdkd8MFCoLOhx+DxdKry+FLG0yJrLpY8LR5ny4mbzFjr6eOPE1UZZeOx3HuarDyStvzVq3m4y3ltj169Wi5GGOqmZIShsgPHfmWZn/rbh8vl+o/bn1l8evry5e2vNI6/xz/L0B+9/UmHvP8X);lineShape=1;sketch=1;hachureGap=4;jiggle=2;curveFitting=1;fontFamily=Architects Daughter;fontSource=https%3A%2F%2Ffonts.googleapis.com%2Fcss%3Ffamily%3DArchitects%2BDaughter;fontSize=20;" vertex="1" parent="1">
          <mxGeometry x="905.0546595004944" y="21.704542754303702" width="223.51459799205512" height="400.82880653901736" as="geometry" />
        </mxCell>
        <mxCell id="4voXkl5ULgdugDF2-I-0-50" value="" style="shape=stencil(lVfbctpADP0av2qk1V6f0/Q/MhNSmNKQIaSXv69cauOV4TB5M+ZorduRzg768L59etsMgd9Px8P3za/d82k76JchhN3rdnPcnexp0MdBH14Ox8234+Hj9fn8++1pRI5PPw4/xxN+n+1ao8ijVeA/5zeBSv334usZv9+9LvFKJXb4QpJv42uikDq8RKrxtkFJVKV3SEn1tkFupLk3aCQBGATi0BloJgExp0ilz1FUyiCGWKj2BolhVqNQ67OaLK1y28A8jrUzsKgaqIMK1b4OuVADWbK61j5LJcCgQyTW3qBMb64bMGkfdGVq5baBZGp90NUqgwyUWl+HWklADCIUepeavQF1iL5ZjU+MOsOzwfAJ4JVS8PgKIrYStZ5tzMQMIqaa/QcaCFhI2OMzaCOmtMKjecETdWd8pQTx7M4v0H87P3n8/5Lc8t/lJ1NGLUfSPD4AEsjE2hmfII+DnywjHtRXp+os/GFwfpxm7QIfQX3j1I4LfAPxpqn6i/wnkP+0yme9Q8iWPL6C8yPFVf9rQ/ks1ePRZA/TRFvyC+JFV3jYb26Gjv6AgcKUV/6j7coUVnxEI9f4KB4v8Hx2+SkU4flOrli/VTgfPocvpL3/tjEQH8US1AdgiqeBhpPVSK+muEDHSfEjsbR7e7X2nDFNpYAzYd6is4FMEum6QfVfyBmyUi3oPq153rTXDarncUpTJa/zeFaVs0ZrMIYkVPovRIGTIrVJkc2y0YYl0pnZ7747WtkEVnPSd6b3dXEdKLh1b/sBtEZjL4ginNbj8O87gyE7L+S64NH2M7JrcHhG5xevt7C6seGjKzwo2TjcqsMjvWjDM/jzUcFGtefzg9TTqPZ8ftA0uiyLuSHgdF+ow4tBQQVrqxaF95RxG/nrJWygz15H7+Lt4XL3fdnt9+er8/J/f1e2V+d7tj7+BQ==);lineShape=1;sketch=1;hachureGap=4;jiggle=2;curveFitting=1;fontFamily=Architects Daughter;fontSource=https%3A%2F%2Ffonts.googleapis.com%2Fcss%3Ffamily%3DArchitects%2BDaughter;fontSize=20;" vertex="1" parent="1">
          <mxGeometry x="831.497414673885" y="319.48331682476146" width="30.366424411321937" height="38.58454816246472" as="geometry" />
        </mxCell>
        <mxCell id="4voXkl5ULgdugDF2-I-0-51" value="" style="shape=stencil(lVjJctswDP0aXTHcSZzT9D8yE6f21I0zjrv9faGqlAxIep3ctOCR2B/IIT68H5/eDkNw77fr5evh5+n5dhzipyGE0+vxcD3d5GmIj0N8eLlcD1+ul++vz9P729MoOT59u/wYV/g14TzVNoKC+z19cOT474fPk/j59Hon3ih5JR4phX1xnylFJV8ppX152T2xkvfypQJAoVA0IFEEO8RAWRvsG1VgcWzUNEBsrkCllIgNoFFp+4DsqGgnxUitAEC2QYtMPu8DiqOgAaJkAHEr8rtqAFMCNpRGTgNyIg/iUD0VnUm5dTdsAxLVoAAlUAJeqpWK04Dcl9jObUfR7CCxBza0YFNDrMogDi33apkB4iWQS61SyxpQeuw3AezIa6Mrwwrl0DOnA8Sqf0tsA9imBkeKIA4CqDrSLCXqIYB1TbP4Dbh1BOg4cIEVN6qk2wzPjt4DJO1WbrBEec6cGcCUQZsRgG8WwCA1RGPTKkcAsqFsqQTSWwBxZTRqlRImDtatqFUKoBqVSm/PuwBjdMbJV8jp9Gbc+UYFTLbG7oa9OJiKk5KCyVdt9xZAAp1PvJ6KBUAvcefwOxs8rjhDigKAySep5mwcHIiDdzJXGETpjWRvC9Ncx4zHVmcT6ga78eimVUFEtMNq+lmU3A21Log7P+whbL4yJC3xok0OMQvp9FHAyEHaCKGxALKprcYToZSMANG2MiGtCipCmJoNoHQlt2eBtppDY2elbUC2zbLKdIDGk2A5qAgHgYooK9KSeQa1Y1kvmxGr9n67DQhUdaRzhJGWCYy10anCNiAzXtZuTbIDcOsyRc6Tq2QXcKusZ1SKs1Xb4/pqYpIjR0PzvQyieoeAbQjCOHoHjydXz1R04OSMgtqG/C6mbXhI7bUTzlxw8BDnyZmoEQODnZ3fEuQ31094izgqHNfpeDlRNpByzp4zYh/a98Q16wTYWFyP/CLuobihfjz+Ozs5SyCg7lmv7iDru/VJPgBlvNXdYQK3UcU89sFrhf+Ky8Nyg/FyOp+nC5D7//bGQz5NtyXx8Q8=);lineShape=1;sketch=1;hachureGap=4;jiggle=2;curveFitting=1;fontFamily=Architects Daughter;fontSource=https%3A%2F%2Ffonts.googleapis.com%2Fcss%3Ffamily%3DArchitects%2BDaughter;fontSize=20;" vertex="1" parent="1">
          <mxGeometry x="889.0543038158187" y="317.7046927792712" width="44.62089966857143" height="25.13173753764805" as="geometry" />
        </mxCell>
        <mxCell id="4voXkl5ULgdugDF2-I-0-52" value="" style="shape=stencil(lVhJchsxDHyNrijuJM6O8w9XWY5UcSyXLGf5fcCoKIuAp0e5STONIdjE0uAm3r3tHl63m+DeTsfD9+2v/eNpt4lfNiHsX3bb4/4kvzbxfhPvng7H7bfj4f3l8fz/9aEj+68fh5/9C7/Pdo4yd6Pg/owHzv178PUMf96/XMET1azgKSzDvaPmFL4ifKHYFJ7TMr57Wye8Jw/cF/9zU/gA/Ams/fEUwfdjpOQ0vgB8JccKnzygX+jOGg/4SZFa0XjgT6oUosa3ZXyW8AkazwAfibU/GfCZ61h+4BP5uowvntyMr2PBz/GJSpr9CTAgSqPgZ4NGLi4bVK8Zki0giqq4NBtEP9b83KBSmXMgikt52aBJEM0GKREjg0hudikxeUBryyNLhkEWWsGmWzUGQgMy4MH6xSDDwsWOSjErgNRh8di4BFeIlGdaJdo9oJUTNW9YAtHNRZ+DuOTRHpjSzFLJ4xNLBoqlUseulgzaXJAk4CGtrCtALYOGhRZy6UjDogXKK0vMPrUGk7pvYuZVzhIehNA088oVH7X0kbnO96MBGSSvfdQGqJJxozZXPnmSQemW12VmiTMsTGKQ1B48Toimm6HUhRWXFEuVh35YXGFOOameAbOkimthyujghFaVQWXtpFUHkh6TQIPooZG0QcahoSSbuJTxClXR6tbKBs+brri4fpajUm9BVvclZpqaSL+VQjMftURfRbHB4/XFoKzVPhVM/fBRQvCoKhct4LB6lg+q4te/gU7ivw2yFnzSWhltwjShlnA0xRGdF4OIW0QgP4dfr98ohZyuTA2rxC4GTPR5UGiakbm1jSdLgibMSSoZEUF8yxZZGQSoXMXjaDpvA3sQ2afOoYtfpBPlXJXcSJAl6eRKPaQKpwERx6ppJQ+VaK90c2hEIRqt4LXsE3GMkroPEHMsyUSAOoSdUMJFkN84Aq0Y2BkrYCVqh7huAGi1U2I3ALTaMbQP+iCW7Jz7cTNw4yAdEpR9dlKXJ4xGe3MVEDLMB3vXIAYoRe1lhhhEUFvNZYngUcsydzFBtAaIJDdm/+vvg0Byo2TdGKlOF+4Qhhpawit+HKwXTiezr3DoMyLDp6HDb8Tj2wzjT4PKzWw3wzQ2bEZY6sxh4R5oYsGN6L4t1LBwWYXLj48bxqf98/P5gvL6vb6RlEfn28x4/xc=);lineShape=1;sketch=1;hachureGap=4;jiggle=2;curveFitting=1;fontFamily=Architects Daughter;fontSource=https%3A%2F%2Ffonts.googleapis.com%2Fcss%3Ffamily%3DArchitects%2BDaughter;fontSize=20;" vertex="1" parent="1">
          <mxGeometry x="714.3894876312695" y="287.4821498033166" width="106.50621501189713" height="4.816460343493215" as="geometry" />
        </mxCell>
        <mxCell id="4voXkl5ULgdugDF2-I-0-53" value="" style="shape=stencil(lZnZUlsxDIafJrca78s1pe/BDKFkmhIm0O3tKzdjEsvm9/FdOOg7tiVZ29nZu7fnh9f9zqi39/Pp+/734fH9eWe/7Iw5vDzvz4d3/rWz9zt793Q677+dTz9fHi9/vz4UyfLrx+lXecOfC5ct+VAoo/5eniiy/v+Drxf54+HlVt6QbuUN5QDkNWnfyEeKBsgrcqaR14Y82FDKlFILeIoaAl61QCaHAdNuydj65DNA6RYIlBQAEqXYAnwqB4HYWsFOtJQotFqynlTEgG2BSA6v4HML5LrJT4H2DM6QmqzgWsCRw2r1reFcoDgBWsM5NiWydJK+5DUZuwSwL2EtuVat3pNJS0Akiw8tgUw2Y6D1paCrZbYCdnYfJBBITbQkgERm6QxRUUBBoAc48C0dOvoaOrcCceoaAsiksfMJIClKa4Cp/rsVcKSX1Jp8DTxbgTgLZBL4iFQbAc5Ja87HSc/jqCEB9qUlLWVWKwgCZcdt1s2eLPBW3kBq41IOZIFa+X1JrMBhBhxaK96TWCJDQ5QXJgmg2qGUAt0KKI3GVA17A2TgfRy3bOwAcAYXaxj6KDauehgSVstwXJYAltBRZuoCgBWirOByhtGYK7juzAE4n5JHLnYGed1RMFLeIU+yNYnfABZcH66+fLcjlKWdptxtSQMz+0S62xICoiXXGQ0WDqEeceOhy4Xvbg9Sa7lc3QrIbjnV5LHRMUqQcRKAdYAh299PAISuvJpcHm8oLN7PUOuEjSGA70/u7ycwtVbVdTaGMTPYEYqTq4F4Vd7Jlm+SGjhGruUeykvJTWvZB0zS5wDACXoA4BJgAOAiowcmZcwAwIXSAMCl2ADAxd4AwOXkAMAFaw9MSuIBgIvuAYDL+gGAG4cBgFuTHpg0PwMAt1cDADdwAwC3iAVoY9ikCR0AuM0dALiRLsBSqz4A8DBAd6XeZNxQgDanTwYaBRAzFjwyKYCYseChTAFatU7GPgyIEnoyWCpA60uT0RUDpj3DZDjGgG4z9GT8xhk6t4abDPgYiK3hJiNEBtaGlKVoaLU0GYNyChdj08kEUfZ7eI4bZamHx8RBuh2eQkfZAXDPgT1CVNsKVufcUtks5cFhja+B4SqP4ql1VdU38uD9fGljJw/crUS2Ffng6w3ctp842g+akHQVKtZnKW2ilEeTAlND/zZ/WP7oMZXnH9cvLE+H4/Hygeb2//KLDD+6fM2x9/8A);lineShape=1;sketch=1;hachureGap=4;jiggle=2;curveFitting=1;fontFamily=Architects Daughter;fontSource=https%3A%2F%2Ffonts.googleapis.com%2Fcss%3Ffamily%3DArchitects%2BDaughter;fontSize=20;" vertex="1" parent="1">
          <mxGeometry x="661.8475077186604" y="91.0423010128884" width="1.4437683354657969" height="176.451209706055" as="geometry" />
        </mxCell>
        <mxCell id="4voXkl5ULgdugDF2-I-0-54" value="" style="shape=stencil(lVnJctswDP0aXzHcSZzT9D8yE6fxNI0zSbr9faF6qAig9OTcvPCJWB5WHeLN2+Pdy/EQ3Nv76/n78ffp/v3xEL8cQjg9Px5fT+/y6RBvD/Hm4fx6/PZ6/vl8f/n+cjednD79OP+anvDngvOViptQwf29/OIo5f8/fL2cfzo96/ON1XlPFZ9PRZ2PFCt+flXnExWPn5/V+UK+wfNen2/k0PMLcdD6OnIJAqpW2AcKBQKKlsiLyviGbG6o5BgDtI8990dsAYzTQiCHvCwAbSVxW94BaJHEb4xFik0DuN+5CdBEip7azg2GqYkCNqsFiO+RSJWCVjoyBQRolLwOBtEBAZiqiR7xA+CSRK8RKdXumXVAsGzNjgIIuJCpaR1yJA8iTvxatUg5E8dtQIzEBtD6I9YB1ZKviBnADclR1uQrEd6QIpWoAYUcAgxpsjQY09n3HNEB1XVXrgMSRa10DRQBl3Il1p6uiRJI3WXOETNAEg/QQWwSDaBRAzqIilWnmea6kOuATF77oQViwFYRwN6QyQFqNE+s/dDmirEOyJ0IM6BRAWaV50WtAzuYl1rtFXAGSI0GSUAATZOPIzlgpcY2GXOCNU4E8FppzpSAWScBDEC4BLIGM7FOMzwLuQWwSuOiyM0WdgGgdC8S10EkVIFEaY4WgIoiD/HgnYN5RlydBpkYkUnSRhoAiN9SoQZAA56TEPbVAgoKarbtjAASCmq2BWLiBhLJryjtgUhN8v3ADYesJE2f9pzQi1GMjjo06AchkzVrg7lS6Op40AHFaFuzEqKr+HW4AZWgBZuXQQr4LX+HQSaUXVkCYpAJtViS6cxAMAUEMtPcsl0bcm1o1/eiOnc6L69AfA29MC+1RgA38JV7dtuKuTJ6DhD884BoO9GpRKA0EKiaqpW787cAln1zE7UO8H1WXRZSdMPIDd+rzBbAzH5SA1AI1bk7X7QbaGAvMqRoHaaGBnVxaWhocq/26wBHybRMYiUQo7n0XDoDPMxMK82xNJaAGtJ+m1QmrStKG9LgB12qKx604kzmZfsNbpBZkscGH+gQQ/frYoTw4IYw22Q5pADyTaOcmWoi5NI4LE6DFtrOsC1aucF48MkOKdOwiG7wdkiZxlHUbdh9lMy7KAeUYWSvcE+RurjLiR1oHG2KmVYCIBaEZTrTx7lErhvI8nRvqUFZc2Jva0JZx/LeWqa3/dfufWw931ss9Zn22s2VTV57qzFr/73dm5329pZ7FD63PbQT8c56UgZsbZ+d/aezWQjvV4dagNe3zlYCvB12fci8bvk8dJt4tz2P4detzp2NLNeLzpZjmzmO4jZYHjuY1lIvoB/H0cSfbalwsABXO6zg/nXuh687Low1LMDS+GhHfaysz3abjW05bfD94XpXSUSbvdcOEz7/jmbnvHz4eCH0cHp6urxPWv5vXyDJT5eXT/H2Hw==);lineShape=1;sketch=1;hachureGap=4;jiggle=2;curveFitting=1;fontFamily=Architects Daughter;fontSource=https%3A%2F%2Ffonts.googleapis.com%2Fcss%3Ffamily%3DArchitects%2BDaughter;fontSize=20;" vertex="1" parent="1">
          <mxGeometry x="662.7860153044257" y="318.79881309522534" width="7.515365460589893" height="142.19410515145404" as="geometry" />
        </mxCell>
        <mxCell id="4voXkl5ULgdugDF2-I-0-55" value="" style="shape=stencil(lVrLchw3DPyavaJIgs+z4/yHqyxHW1Eklywn8d+7mS3ODsGZVnyTdtlDovFgA7MX/fDt8dPXh0tw395eX/58+Of6+e3xor9dQrg+Pz68Xt/w10U/XvTDl5fXhz9eX74/f779//VTX9n/+uvl7/6Ef284J5o7KLgf4wPn//vg99vyp+vzbrmX2szy1M6XJ+lf7ZYHiXq+vEr10/IoOZHDeAlxWp8lVLI+infT+iqeHMcXcfPxvROfCaBJndn0YTBwCOh8zCfqZySEdkZmB/gsjgHycqQijdgATtpMareKsKpe3GwDoqQQt6laWoNKISxpEj/HBQIrFwIo4tMMKJKJp7WJqzOgSSKA6KTOO4AGJTbEIDrvoEEa20EHiRsgihJPxyhtDg3wVtkOWbw5UpFAkj8WibMftFLHRXw97wDe1JF6gXJiKkCgR0pIoJkl0BBI8KUoaQ5v0BAZAAk0hzesqsyGJn7eIXmaotlLnFlKSo+UERozSwn5EAkg2VhKRQoDlOVIyAfi6dxsTsMqT2wo8PRMaw6jtB0DvM24jFJJjlRUgtkhDd8fA1BbjQ1ZGgm+gtJbZkCl4V2KpLkYgzdWyAponQGgwRGj65JAJYykPQZ4aTNL4K2yHUCrOVKinq7IuJkl8Mb8UJdoBW+VsFSzvbLAWyB+qHVEziYEuI6pbdzKG8DTW7Q5CbPRnTdSjBuuj9lxnTfihxZGqG2ANMTZMUBHJd0AvNy3aIMPvEWiBAAwpRK8ZcZSstUbvGW2AzLOADyViACYnAZvTAm0YlkCb9ToYqMVNARmdB0X1A7QSHgDYDRf4/KntXHfbIBMpQMA0bBUqAz1zlnRh2ckFkzNqhN8Qj0HQLKAwo2oxQIaqQL9eSuA85qNlr7zcIYwaqNvwaKpjQZpD2BloIkuNLH6ja/D6gjOa1hoStxz6w7sDjq0gTVy/XkLrZ4DVj8w8bC6ugO4DUbqtk0HnobrAgj8SGtCKCtlRykXWft6mNX5naxeYoMJy3tK7sOVVctmZwJ3Hk49Zzrk/5GkiyfaO+VyLRz8TLoA3rFaF6vf4TUsNmRu9C8Cqr3c26ZmzwDJlLJM+1EATD8KAE3Sshwp0fkSAGqOFHntW5o/qAEqsvIiHwKPpTRuwR2AKXwAjCqDBHLMD9HOmCCyHGNJhwbb6T6mv3HiOtMKZUnLhh+jjw2QaeOEEzcjRSPNuLrdmjv9zTRTN9EcaZvYHAOKVQ9oCRitMDGb1oyrY+h5o8pKpTMmcGLmoWicWOWDieZKQS/H1DFMNKUSTXNgjZOzTTj6USbKYKKhFR0v64NgopEnhQ9pYWIxTfg2pjqbC+jsh1yonIaJ5mrPmfqhmzgHX460H+0mmh2UGp2XHiL70RmdTYD8zFLil2JOVrmmSttLnNjUpcTLfZ8ozZ5OSrVxWnI6+TGLOJv1mbFX3MTv2TTRlPuY+ZHCeOOwm1cWNuBcPB0DrRqxWm0cHR3Hx2IvFG10oBOT1HkHLbSVi9HecZoprVFt5dM4pn9n03Vrg/JhubMZp552l7rUJeVvymCimVeGSsO7m2jecmSa0xrsGDhEOvbCiYt5UxPosBwnzrOn+/tC4jic2NwPvtKWIyzixGcqQ8OSQD7SdxC+2WvXh3EBHAOy9bTfeDsGqH3FVqmoxONMX5ZHQh3foZbTRCeJyfZwSmUJwt7wSZ++3Od8YOfsuxBHK4Wzr+H4WBbL7dPZS7stYe/L2WuWpRnmsX+wnCkjZ1+YOHpbOlvgHJ0uOPvGdGP2bPnyKwAeBGqX07OrZYapoV/8ScK7y/HH/dcPX65PT7cfT+y/t7+WwEe3X1rox58=);lineShape=1;sketch=1;hachureGap=4;jiggle=2;curveFitting=1;fontFamily=Architects Daughter;fontSource=https%3A%2F%2Ffonts.googleapis.com%2Fcss%3Ffamily%3DArchitects%2BDaughter;fontSize=20;" vertex="1" parent="1">
          <mxGeometry x="445.942123403335" y="275.260710105189" width="222.6680202622001" height="181.36108459854364" as="geometry" />
        </mxCell>
        <mxCell id="4voXkl5ULgdugDF2-I-0-56" value="" style="shape=stencil(lVnbctRIDP2aeVWppb7pmYX/oIqwmSIkVAjs8vfIO9UmrbYPy9uM3cfWXUfyRd98vX//5e4i/PXl+enT3T/XDy/3F/3rInJ9vL97vr74r4u+veibj0/Pd38/P317/HD7/+X9dnL79fnp+/aEf284ptI3kPCPcYHlvwvvbscfro+vjiupheNWzo/X+HShnM6PGzWdjmcSIExK1Ot0vlAxcD5T5ul8o5TB+Uq9Tec7NXTeKM3yJCYF+koinRV2lQwBdNhvB+gw8TGgkJYZUKBN3SQqM6CSMQAY5aBDpwq8oK7iHEMeRB3ooJlsFsnNUBUAOnGeAZUqUDqnqINr1YGnc6Y+66BKCeiQO+U5lNRFAmYtQjx7OjMloHQpMbizwmwo7qZZpOyebiCZPd1mkQqTIECmNlup7PXjGNBivSiVMvBD4xitxcMRFKQmo14NQJVht2OAl5TZrLVApVsjm4tA7aMsHAK6V9zZD65VB2/oKeZD8+ADZu0azepaZZAP3TMuALwsAD/0SjKHRusjy48BjWQODTdDBuHd+yhbOyCNbnEM8GIcADKS9gwQlHYzMMhp45gPvcDwtjSq0A6oI0OOATLctAM6rN6mJHN4u1YNddxMadbBhUSFzEqsSy4kKsYOCE3a38kglqyO9rED3KwgRa3FFPVHoGg1i9XbryAi4LetRYAgpsGe1BwRqDDZEn1+BfWsDZAioCHPWazG2yOQXV2AsgDwG/L8hld2OEMEAvTL1GeAtCiByIPf5gXQQDneALI4AusQM8JgKdsAi10Fi5QWKyUcG1IjgFEZsMgrrUNi74DSFgBOoSYLANU+9+tiJcYAW80K/HCSpNjVtgRTweFqOQJQ17Kdd76ObxwbbdHBMKDMb/g/SbqUpt/UAVmUMByvoVdvWmOR/hBQl+JXcYCXpR57I0M6FEohIzIVBMiRu3r3hlm9DN8boUCuliHADmBIFLfnhYG3Y/rAsbk7sYO92kMtANzQmMZJEClDpV3iHCiQD80I4PQhiCSDRZ2R3RoADFOu72uJnR0bDA1XMUztzr/hSCBx6HCGj8LbybMGwq7U0OBk0awtwRlimxhmx1W8PWnLmO+TVsezXKhLPsuhllJtqLgDGFJRn0dDay9+BUSrT7wyd+qSYW31mToQ9oKXIT61h8qXG9wAuQChj2YXEm0eUlxVZIah4QKEJqdtNICz7YnO0ao6RqljAA+iugN8WkQrI7fJ7DhpMKc1x9q67R5BxmmKXFcSFfAG6dFKyYYZjgF19Jsd0CDZkMXTqeDVncSMS1hp4bgQTQKHlNQj60sJZlza9z17y4KOThoZWYMq++vD8+sotScbaZ2PF8ija8xmxVE3ps7dOnDruCy7GFJujhsThqbhOGS4s0GpW7ZWDIktx6mK4dZgYeY8EvrseArHEY/nuB9mOM1zHCExi+JIBP0CFCbMargncWyrDCOSYzHHXP8PPwf99rj/+PXl6eP14eH24er1/filyi/dvnLp258=);lineShape=1;sketch=1;hachureGap=4;jiggle=2;curveFitting=1;fontFamily=Architects Daughter;fontSource=https%3A%2F%2Ffonts.googleapis.com%2Fcss%3Ffamily%3DArchitects%2BDaughter;fontSize=20;" vertex="1" parent="1">
          <mxGeometry x="260.16415941305706" y="106.37196801986033" width="139.33530855733542" height="130.28906375256005" as="geometry" />
        </mxCell>
        <mxCell id="4voXkl5ULgdugDF2-I-0-57" value="" style="shape=stencil(nVjLctswDPwaXTEkwec5Tf8jM3FqT10747ivvy9UjWwRiFZpb7KNNQlgASw08MPb/ul1NwT3dr2cv+5+Hp6v+4E/DSEcTvvd5XCVp4EfB354OV92Xy7n76fn6fPr02g5Pn07/xj/4deEi+TKCAru9/SFo1D/fvF5Mj8eTgtz78i5zj5TDOv2wVNInb3PlP06gB3l0AHkigncKHpy/QnMFMs6IHlq3AFioAaulFn7nAJFAChMvvche+K4DqiefO4BlWIGgDJnaQYUSSSvA5rTTpdCFZzQJCa909VRBD60qH2ogZIDgETe94A4k2UN0Pqw1kQVUKMJ1VoPKBTRCfJzH6Xa5vp4H1C10xLojKJUqfZXkkB7UECtUejz0Bjnoc1UuwEirDgBJHVCooyi1CgrpyXQKNONap+4hvPgnWkz46HYiVo1oOAwJa8BFXldqWUNaKjkKgULaJh9PTcWcVgjeInmCMTXTM6ECfU+oUIygIoBoZlE4DagJsSYGuRDmlvjAgCrOpmakxpBgGwqQqoQXUnaMRsA5obl9wag2BPQlW4uftRpSZPJNAzrjc0fTZwADFshNWyj2SBfM+14g971nUzDAipUlJ7ZrtFmSw61gaxn+1ajSVSCCRMuCDZhgs1SatRkDrbj/wBElYiNUS2NSfEbC8v7UFuOOaSA0kzO5SBFo9r2SoYqboySAogYQOyLxmmRG0gBsZ68Img8ihLrASGSCaq4QKxUXMJs9XrKiexjdIKj1HNpFJaAGuIiG+maQOLERTbiuKETWAtLkd8eOC3/l4zAR70yG3kiKwSqhyRO94mTJSWBK8WqyRcl9yBKLFHqV0VZtNBmJquhmruyyqF+78usbBfLYgFXMmomwzy72b/7rsugERsN6maqr5h7bY4mutN1I3iQX6lzVuYO3N1bVx1o8MKtqs2Bq36ekQtzkNegBRv+96BXVQdXW9b7jptZsWKetauoctleJgBX//F1yqa5PNzf3Lwcjsfpxc/yd/2mR76a3hLx4x8=);lineShape=1;sketch=1;hachureGap=4;jiggle=2;curveFitting=1;fontFamily=Architects Daughter;fontSource=https%3A%2F%2Ffonts.googleapis.com%2Fcss%3Ffamily%3DArchitects%2BDaughter;fontSize=20;" vertex="1" parent="1">
          <mxGeometry x="244.1649564684401" y="109.03818177016092" width="30.69061824329929" height="188.3665292223529" as="geometry" />
        </mxCell>
        <mxCell id="4voXkl5ULgdugDF2-I-0-58" value="" style="shape=stencil(lVnJbhsxDP0aXwmK2s9p+h8B4jRG0zhw0u3vy6mhiUTNvCA326M3FLfHxQd/8/p493I8CL++Xc7fj79P92+PB//lIHJ6fjxeTm/66eBvD/7m4Xw5frucfz7fX7+/3C0nl08/zr+WN/y54iLluICE/15/YPL5/w9fr8efTs/d8UrBDccjBdk/7jyVOpx3rgncBiTKPAISuQoAlVIYAOLIAQkiEyCRFACIlPIA8I6iB4BCzo+ARJEBoJIbJQSmCMyqgDS6IXiqbh/gmXj0Q1BDAx1URXulSh5JkKbiGhnY015vPEZeDO2S2wANNQNI5IHj1Oo1jYBCAUkolEelk/oh7QPUTXn0QxIKAQBkAgTyCBCam1ZAIkZXysRjeKfcZG4CoobGaNa0Jvk2wNt8yBoswA8xNyOuAE8Mgk+N6GQEhMYj2wBVegy+nKgAGtMbG7PmQgX4IUcq45UKUwE65Nr8ugIEpqg+ZiMhUAWsoY+Np0tqntkGKNeXEVDIgxTV95XRSqVCpUu2oVFxaOgFTE5XgTmtF3CjDtVDqqxseakGXOHEmrVGciA06pQPCqhAB33sRxKoSsYgvGtt71sBFeuggGABEXh6ecwWkJFZiyUyBRTASzXbsrtcEgFS6yzWToC5pfmeXV2aRCBHBEsbCwDkqLqaJwnQc2s56AAJZJACZLpSQGaSFgkdALUzCphjw2GlDQuo8ytSWnkrTwAkQRswsYCCdMjNJr0EHK5xchyjK6nVJz9AFqiNrPscBRK6aO5djWkgVQtIKDZWHfskxWYyNWhRC4XrVCEWANIhUhxj48OsVrqesxrzsZ8CHNV2zYg0OSLhrJZJa1iEPgvQQloM42uLg2p7au/raoqgUh1JpjIHK29oF+gKKRqDip/oWEs1kiCNS7tmAHXTZeY+17TaBjg77RZM+NrkmT7xvWPZa/tMUhdc23O2OaqeQc2xtsLedHFalYBZMzdqXAGutTjb3XSyVLZoBSQs/froONUKlRSdCLyRENvMvA2Qaebw0NNhGuW05UfhHWK7cTcGReA4HeXYTGYZdkB+ou+EVxs+N3bvhkUUfDohW4DAtk9ncLNt0YE3IYCzvKQjdQS85Nmytw7tSAcpzYjdWgDuc7Kt1FEvibYtyQ68y2oDSQh2j7AsTzAgmOWJh+2JAkzdXRZAeIllWqxlxQSCT7i1Fv0SC+3Vsm2/1W5oU+GCJWNRMkYNkLOh4bRkAR2Kbfr0DWga1b7V7IvgFm5qxxg23mx5e430neOGIhnqyracc9vH7Ryv9u0OqOpsE8awIIhtzxn2zmLrDW7wvN1l4rcHEruwZpApwe5tGFcmEmsZuNpqOdR5Fbjpk8v2D4/rh/e9/sPp6en6t0D/3P4PoD9d/0Pwt/8A);lineShape=1;sketch=1;hachureGap=4;jiggle=2;curveFitting=1;fontFamily=Architects Daughter;fontSource=https%3A%2F%2Ffonts.googleapis.com%2Fcss%3Ffamily%3DArchitects%2BDaughter;fontSize=20;" vertex="1" parent="1">
          <mxGeometry x="268.1663089197176" y="359.7044392400253" width="21.769141067338246" height="151.92760165763704" as="geometry" />
        </mxCell>
        <mxCell id="4voXkl5ULgdugDF2-I-0-59" value="" style="shape=stencil(rVjZbhsxDPwavxISdfI5Tf8jQJzaqGsHjnv9fem62pjc3UEL9G291kg8huRoN+nhbff0ut1weLucT5+33/fPl90mfdgw74+77Xl/0adNetykh5fTefvpfPp6fL79fn26rrw+fTl9u+7w44aTTlmuKA4/b29iCBTC71cfb4jD/niPSBTZIKRBQK/UkwUEKgwATNmeoFv8sXIR0BqxA0SSDgCRUjMA3SK3dUAtlLoFMEldBxShVA2g6psMAIlatIBKAZiUOxXrQ81UQZRyphgsIFEp64Akw8UJwDBxSS22ZKqRSgIApmoTVwNVAGChXAxAA91AWLkOFydAH3RcBmhMrA9FvYoAoBbbKJWJv4uA2EiyAWSB9I6FoqVGrlQBvSNTsk7nRAJM0vOtRZr6iA7wWeBMDTApUHfrmTrYP/hqi0pFuH9w6ysxXm8rQSOG/A0UbXw6RVD8gbI1Jw+arywX14JJAOEiVcuGABsLE4tbHkBo2JMzjppermAq1pgEjVEa2lFQRxNbblkULW+ihhYUbx5pmdZn3H98g4t9VMKat47HEXaf5HmmFqJozuqWC+SxUqH59Wh/zaVNrlqI2u00p+/8DZDJPv6NCojPvA7xRApjIk5KAk7tqTCmzkwNWt9dtqgBXaMawhcW2p0pVLccqSY9O7nl9f8t1zpy4kGHDIOWpolxodeWjFq47tcddxJsmlp6zYW/jlG87HL0bTaFUT/LgDxcnAAZ0k0N6G4udqjJlI/OhxzG7F4TQE4bZ51E4ASVWGzzoLKOwQlXA2weVDygPFz3c/Kkj7axJkSrG3cC1YBKXTdjShzSdE1MVxvWkiFbVa47k0qjBsKqFwIHUKkb0A2izdR3hZNPLzWOSy1A1dfbaP0TIMOKk+TbXdeOhADdN42eIJdEhnS4AyBlI7NbUNeKQ5dL8ReCXrAP4tuMxi1jH8T5IMSokYXZlJI4NNXqEW5MaWqwTd0ByijC1TDZ2SMVCmSZKXxNPuqVCnDS6z2Xa2Tyt3zBd45///LwFwh9eP/U8bI/HG5fSu7/959G9NXts0p6/AU=);lineShape=1;sketch=1;hachureGap=4;jiggle=2;curveFitting=1;fontFamily=Architects Daughter;fontSource=https%3A%2F%2Ffonts.googleapis.com%2Fcss%3Ffamily%3DArchitects%2BDaughter;fontSize=20;" vertex="1" parent="1">
          <mxGeometry x="206.9205095253967" y="520.7650778543316" width="45.61652291192078" height="7.5340651906774125" as="geometry" />
        </mxCell>
        <mxCell id="4voXkl5ULgdugDF2-I-0-60" value="" style="shape=stencil(lVfLktpADPwarirNaJ7nzeY/tmrZQIXAFktefx85jsGSoQk3Y7rHI7Wk6VnJ08fm5X29ivxxOh6+rn9uX0+blXxaxbjdb9bH7UmfVvK8kqe3w3H95Xj4vn8df7+/DMjh6dvhx7DCr5HXO/U8sCL/Ht8EavXvi88jfrfdz/GBIht8pxJv42ul0uz6FX6gNOrVEKJQFUBg4mAIwpTLbUJm6skSdEt8m5A0JZaQMkm/TZBEbJOaI6V8m6BJTDbo3IlBDLFSjoZQMgWQViWwJVSGwikhFUvIlIAOSujdEBpTQDE0KraUWqKCYugUbC01fQOEU4JY4XqjgIJulKsnVEQoJFZpbaiIgo7U2RP+dchVQtAtdU/oQIcgU3+dO461RUCadMfJfwG16LnSZnjUcHESaYZn0D58RbUMIuZptTNeSxGIFkiKxwtYP/nW6YUawJ+nyQyfQH5CJFkQIhBAR6ibL3cIGnJeENCWVGN5KOZl999J6lB12ROQakpglyVcFrqlZV2julOhQ/EEWNjLysOdE7Ifqvd6MzDVRRCo/cs0pP9zvsSFbniA6X4empB8RTU0gh/HOz/S7g2XZgt7OHRQc/oTYTjVEspnsvsZjk0gsFC2+lbsXhJVu74e/MgplCm6s7No0OwENXj2kFXvwiBgPaBcBaU0ecqbo8J2vvovAV+Q4jVTh4diVnvmxp2mOYAmyDL11MylRrClUijbLKkTAVVXk/drgRKoai0aCQ6PRKiFqhVB3R3ajxZBc3hUpS1M/vWCRwnVppLq8Gj/Td1m8nhkWbRJgseDmutC4uONaP3sbRpD83s5uy54dGnRIbvUF+g1OyZmBYTuaY/e6+7i9eFyiXzb7nbjHXT+v7906qvxwirPfwA=);lineShape=1;sketch=1;hachureGap=4;jiggle=2;curveFitting=1;fontFamily=Architects Daughter;fontSource=https%3A%2F%2Ffonts.googleapis.com%2Fcss%3Ffamily%3DArchitects%2BDaughter;fontSize=20;" vertex="1" parent="1">
          <mxGeometry x="247.6286473047776" y="546.5934256643545" width="4.8996353373589345" height="38.21184887053177" as="geometry" />
        </mxCell>
        <mxCell id="4voXkl5ULgdugDF2-I-0-61" value="" style="shape=stencil(lZjbchoxDIafhluNbckHXafpe2QmpDClIUPo6e2rLeMN1sJPuAOtPts6WrsrfnjfPL2tVym8Hw/77+vf2+fjZsVfViltXzfrw/Zov1b8uOKHl/1h/e2w//n6fPr/9jRpTr9+7H9NK/w5cYmiTlAKf0+CQJz/C76e1Hfb1zP1TDqqC4VwXT0GCnHQr6QM9JliGPRtBRUAFGoOEGrxOmD2OQtiI60AyMQ8AImpoB2UtI1AowZsYPGASVK7DkigOAImQWGQTDLaYJJSQJgD1TQAORInABSKMgJzZC4CJZKMmVESZXCkUqiMO5RKBeRSXexQEyVwpGo+GVOjFkqgGKr6I5lEAdDYV5tJGCRfKyR5BEyiAFDi8UgmiWAHjT75TBJBHFR7bs5ApYCBkj0gIA4GaPBAQ10jzOk/E61X7dUtsgdQjRpQHWCeBl3AHrvsm/wAitoO4BrTdEhQcgbkcYczP1wjgty1Re2d7rNG1EVy3HCT5U67KxAGJA/AUFeKY++7kU32mBcJDvO1UhUPwIpovg2oNUucG6UuANBozOuuHRugaAelvLAhob6h3YlnAEyNxbU4uQH3jSVQ7juS3trBG20SvIN3q+I4LAOnvcw/mxoGIBuWyWetCtlwNxD6zT8DTAIi3eZ7+ZNXSpNe8vOl1eAU2qLfoeXut8s3dfNzpS1RESAUx35vSwQAFEuEMgLSO9VlIPvOZ0sIGr3VB67gMTEL5dFL2a4MYIMohTFbM8NGJkx1NFpwq+TWp5cZsDiAZsxMaQS49Evs8vTd+sg2AwHW9DTNu/k+96v78rShixeCQA3sEHN34nxRF6rorclmbQckeE83fyKF14l4n5pLQQyCf3lIME8DpeTU0dQdfBnEPv1dU3fvezC6F9QTNNUdJtw4TGKnXqC6iFNHXS70JPlQR100elMDLJTouzqeHRcd99bq6tXR2e/8CnFT3X58fPB42e52p+8l58/9BxITnT6u8OM/);lineShape=1;sketch=1;hachureGap=4;jiggle=2;curveFitting=1;fontFamily=Architects Daughter;fontSource=https%3A%2F%2Ffonts.googleapis.com%2Fcss%3Ffamily%3DArchitects%2BDaughter;fontSize=20;" vertex="1" parent="1">
          <mxGeometry x="324.16070735021594" y="544.8089217525117" width="48.04645125366303" height="45.28178013914284" as="geometry" />
        </mxCell>
        <mxCell id="4voXkl5ULgdugDF2-I-0-62" value="" style="shape=stencil(lVfLbhsxDPwaXwlR1IM6p+l/BIhTG3XjwHFff19uF3JWtHeS3OwVR6TIITXayN3r7uFlu4nh9Xw6ft/+3j+edxv5solx/7zbnvZn+7WR+43cPR1P22+n48/nx/n/y8NkOf36cfw17fBnxkWSPIFi+Dt/CMTp/4evs/lh/7wwL6RtMI9U6ro5R+I42CvVDOxzX+72tkOWdYCFG3UEVCoIkCmNEcVEAgDCFNIAsC8ZpEgKNQdQanEdkIRkDCkVqgoAjbQOgGxnKOuAXCiHAVCYUgBljt5DUYrAgy07QE3EwIMty1i4qpQbADTKoweN/VQ3AZr8oTVTBIVT7cy5AColwO6mJDwAmtERVNoAjhoGqCCk1iiVEcBUkQejxniGJhRQx4VAYUxTS7AQ5qK5mAoxoKsBqkuT9SggkwHiWGpLnCKATRV3hgbnkgGCmzNvebiNqCTNu1AGAOvhKwCDQWMAzyaLEtW6UGBfiILOkKm5NGUKOKQwTiZjU0KFsDM4gkdIPwOo8xCoocpZS4oHCKqDJbF5AKOQtLfkApCRh0bi0sr9Vl1tCPFZyujQredk0aMB1OFWV2cqOCa9alLGY8AXQuE8nobfVZMmXAg/BiwPCGBjha8AiN+fBdiFUMZbywgcQUgqPeuLDhIwLKdb8IrfDNhXpcuXxTWngEzFzjA2hDJsCNMK7uatuauu23LDlp3csFMBD0k7ERb6BDVEYj9cTQGhLEn2Otc0FhSWzQPEBAiYxlEoj9QQE1GgH1j7fhclWrCYFmpOfDNMKwdKI71NHEcQkt0Pzp4hldhraWtxwAv2MwkrvkBl3L124bFiLt4cvWQuXXWhHDHc3cWe+7XyMfNL7T4WTIRjKPiW53cyU7w5ygx7WREg8Y0EyZkjmcP+BYl11yffp++a24+3p/DT/nCYX9LLdf90tk/zs1vu/wE=);lineShape=1;sketch=1;hachureGap=4;jiggle=2;curveFitting=1;fontFamily=Architects Daughter;fontSource=https%3A%2F%2Ffonts.googleapis.com%2Fcss%3Ffamily%3DArchitects%2BDaughter;fontSize=20;" vertex="1" parent="1">
          <mxGeometry x="603.6645570489011" y="472.7570268797358" width="36.21415257618183" height="15.07532001188363" as="geometry" />
        </mxCell>
        <mxCell id="4voXkl5ULgdugDF2-I-0-63" value="" style="shape=stencil(lVfZbttADPwavRLk3nxO0/8IEKc26tqB415/XxqCUC3XGiNvsjyj5TUkd4pPH/uX990U+ON6OX/f/T68XvdT/DKFcDjtd5fD1Z6m+DzFp7fzZfftcv55ep1/v7/ckLenH+dfty/8mXmq1MKNFfjv/CYsL77O+OPhtMYLSenwkim0bUJVytIfUKjlbUKxv1NHiJVS2ibkRqIdISUKdZuQGoXepByolG1CbKTcEQpTAU5H9k6XSk23CSER92GtCZokSpw7QhNi4LREkp6glSrwQQLV3mltlEFpiFDpnbbiEmCSkqrHI58b8fB9RYVBrQ14kIRILXp8RUnzOTN8BP4y1eoDWiGem8czUA4vBbDKcGRoj6uIQhlUhPnr4pNJkQqW6K3wGdifvfANHwG+ktYBD+yx7GePhxqTJRyrAAkwyCRTBkIDGbgryhzhCdq3a6sJ1H6NwMkTFPUJHpxWKPs2tAlddHe/v1Pp8cJWuCBIidLQJtAB4U4bgjElGSMEvs8UBjyWGbsAVSiDz+JtOvYysJHbHkwCR4gUQYbNInHjr0ChWU3EvoayLmvD/U5hHvYmZZtmoPUmc7o/IQXK4IRcfPOKeWn398vUtor+BOtPaA2xqLt2LbaGoHFW/d4iS0Pewtfo8AF40JoXAsNx09TPJ6YE6vq2CmaHFxAgNWH67yPda/JCe4DPVIu3B8THZDXYD8eHVXX08QT5srYThnwh+3WZFat6QPsWD50iwL3307v+Q7w9/L9YvB2Ox/lesv7fX0Ts1XyJic//AA==);lineShape=1;sketch=1;hachureGap=4;jiggle=2;curveFitting=1;fontFamily=Architects Daughter;fontSource=https%3A%2F%2Ffonts.googleapis.com%2Fcss%3Ffamily%3DArchitects%2BDaughter;fontSize=20;" vertex="1" parent="1">
          <mxGeometry x="630.4023767037397" y="500.3442088288898" width="10.160355908000282" height="28.6564940252174" as="geometry" />
        </mxCell>
        <mxCell id="4voXkl5ULgdugDF2-I-0-64" value="" style="shape=stencil(7ZjbbtswDIafJrcERR0oXXfdexRougTLmiJtd3j70TDcWVT8F70c0DvH1hdT5M+DtYs3z4e7p/1O+Pnlcv6+/3W8fzns4pedyPHxsL8cX+xqF2938ebhfNl/u5xfH+/n309308rp6sf55/QPv2cuMKU8UcJ/5jtMOt/4Oq8/HR/X65VC6NaHQIm3AalUawdIIo7bQFQS7oAoi41XgVSISwekQC1tAzlTiB2QA2ndBkqi2G+6GNC2ATWLe5OUScAetBJrD5gbgJdqoCwdUIWyAiAOQIF7qIlav+lmWgFutf/j/g0tUhIAqPdSy1SQSZVa76WmS2SuAi1Q6bXUTI4gDhPg9tCIgUkGiHoggsCZE3PxQAYm1bfHK0BRHCpJ9UAF8rbA1eSBhrSUKfZuDczEoAqY+nTYNXyF+FdMm0DaCIP6GqxkagYMbkIZZIAMboo4qesQuQASwt6gg75RFTDAi8kyqAAv8ZByEdbKqQr0tdLklRGQfdkwICD1qd+D3YGRNi8FD6Cy0YRCGgAQh5YotwEA0miWQYNJsM7UYdMVSsOUUwYgAZNWGbkiKtDGJH/npjfFb20iigcyCLW5KVUPQDclkqEHoTpj5VjTAKA+aik8bBomhGVk8YCiN2RS9gBsi8mXDQMYJXVappdVpJFczaQ8SENQyhVqziTF5bteAVA1tsB5LVnKoT4al+llDSC1Fj+5TiYhtdpMlryXGOdoHOKAGkQbWpABSEtTSxsS6J2y8UEg+zhMOYgy7m2aX7cg5Na4aHPd5BDwOcR9DnH/0RCnSwqv9I06tQE+5TJVEActQ5OzjzvwGaSWkUMbzWiuTMvYufpYbMgkGQAhBV4q1RcmcwPqiiVScF/IDN2abXLt1VoEyjtlP1dmDMTikzrZpAkategyHq2ONtDkGpo/FpC0jB/XvUStb4ohLJXq6vphRuRlet9aHt1yhcujP1vKIMTsA8bLbHbdOVTFLUeNSvw5FMOekLznGfb+vPSL1XJgTPFCwFOq+sLLFFCh9rllnkE93/dX8zv8svCZyLD3ffiI8d31dvHvPPPheDrNx6Hr5/78027NZ6fx9i8=);lineShape=1;sketch=1;hachureGap=4;jiggle=2;curveFitting=1;fontFamily=Architects Daughter;fontSource=https%3A%2F%2Ffonts.googleapis.com%2Fcss%3Ffamily%3DArchitects%2BDaughter;fontSize=20;" vertex="1" parent="1">
          <mxGeometry x="737.0548672765417" y="501.26008002533626" width="11.97921121016356" height="75.79937726826806" as="geometry" />
        </mxCell>
        <mxCell id="4voXkl5ULgdugDF2-I-0-65" value="" style="shape=stencil(lVfJbhsxDP2auRIUtfKcpv8RIE5t1I0Dx93+vpwONA05Fl3fxjKfuDxumuLD+/7pbTcRvl/Op6+7n4fny36Knyaiw+t+dz5c5GuKj1N8eDmdd1/Op++vz8vvt6dZcv76dvox3/BrwQXIYQYR/l4OEBD/HnxexI+H1w/iFUJR4hGYx+IhQWElz/3gqrxoj1nJhwgpOYAKkTSgAtEYEDOEpACik9sYkCKgNokKtDAG5AAh6hiJD47TmYG0htggOT6UAllrSAQlOqyJDzpKqXTerwMaVA3ICFTGgBah6MTIEbLjdKs96iugADomscSkWkB0iBMAG5Mq5OoAGBIqQJHU8ExiqDqXhBn0NbBmupKbGgHXclwR7DInKpquuCZhclQIoOhkYnKzjzfpyqW7NSKiaqrliuxpaEAbQHOyjys0HSU5Yacg5O9o+lK8BUAT1tXI6wCJic6NJq32LkBNvcxHJgWTrhIGj4cKSff6Qm5Rz2E1XaBBdLqxEBe1SVKj2RknAmgbgMsDd4tXAPthlfQ2NZog+AA2FYc94f+7RoUajwje5Ebqc3XYaEyNImRfQzQVlHschs1SmzSf+MwlM6nRXx3uR8iMaMF64bUmmUKZ7omTzLmiNUi3zA4T0q/ZAAiak04yEZKmThq4NyMkn8OmD7BjUkY7SSVhg8O1LAuso1TW6T3amdAUXYPg8CBbGWmnc+oLxWjvI+20bFHJ6QOyWGadTEl6j0ccoFYge11xLAq2gBK6Qy5s7ke3B6BdsGTnI2euY1+DV/ncYzyQJ3N/6NvNQB71dkXrPBrJ655H1CfkSF7XTahuy5PoGXl/KxF/zXx2awA3G7Q7RRCaFg83ksG8ktBdwe58g90Ul49/z72Xw/G4vBY//m+fh3K0PC3j4x8=);lineShape=1;sketch=1;hachureGap=4;jiggle=2;curveFitting=1;fontFamily=Architects Daughter;fontSource=https%3A%2F%2Ffonts.googleapis.com%2Fcss%3Ffamily%3DArchitects%2BDaughter;fontSize=20;" vertex="1" parent="1">
          <mxGeometry x="762.8314271078186" y="477.26049314638385" width="43.38914111209887" height="3.069133424909422" as="geometry" />
        </mxCell>
        <mxCell id="4voXkl5ULgdugDF2-I-0-66" value="" style="shape=stencil(lVnZbhw5DPyaeSWoi5Kec/xHgDjrwTp24Dh7/P1SO1C7VT1Tg7z5YLVaPIpF9il9+Pn45cfDKerPt9eXPx/+Pn99ezylj6cYz8+PD6/nN//plD6d0odvL68Pf7y+/Hr+evn9x5dhOX76/vLXeMI/F5xK0gGK+u/lD71JKP//5fPF/un8vLOPEuJqb2J6294kg70/od+2D0FyWQCtipIDQpbaVkASCwTQpKxXrl0aAfidy/pKtUhNBGDo1BqkMUCXsnrJmiTySimK9hVQpJATUhZdvWRJkhFAEasrINBLJw+TrYAtt64DmuQVUPp8xHVAF1u9VNq81VVAVkyNUukr5SAdTjDpDBDnv3cAlnw5SS8IYPWQi4SwAjwyJA7ZZiJsgCyNuDVvqbYB/CXJCUUlwglRGomD/ztCHLzKyaX9jYEEcpeaCcAwcLlKJ3HwVMMTTCI5wbO/rRWXsxhxq2UJq5c89pFc2kwUAHE+4jqgTlLZAEGU3eF4aZVAAFWl5wXgNViIW6tHuiCAsXd1n6wk4LTAeKlmTD4nnkoalnN1MAQEdoIX0JqtzoU1EkCdubkBvIDYCU3ayhopTFq4DuhIxt4x2AlNscdFf0kShxYkwQlFMqnp5pFeWSN6QyG55F0ZTwgz9tcBWdIa6eCXrgRQsO2OVk+ytW3SZQOYNHZCnUy6ATZ6vg7oyHwhTb9dBXSdTXYDBNofhpwC+UOJr6dDXxcjqdfz9PnGGWIkL1wOgkBMtNq6e2h9voqSYnP7fLBn9+2Tpd/tA39+i2DP0trtgSKV+jOoTkLcInzvAr2DfWIJ0bEVBto6x4WBKmgTGQ5NYM8a5wgY2ifS1UZCHOwJc7m9FrBnA4zPNx39zyReP5B1kEI4wu0rcIRE/vy6xldnBt58nwb2TEsN/2BCR14AUcFemT89vgd7Hi872DN/uvLDgmdtY+Q/Pr/cKWD0Z2MD6rUCvvdCBeyZgB8FmcGeiYPh0DWBtpZwyx61AZ01f9vesAAyf/+CDG2zad7qSCAk2mSMWx0S/e8ZwQIWcBr3pk0pUVHquyxgV2htLhw2gA+mxEcuPMp6Z9dCiSkVQ6k/2gw7oeCixsNcSR24PMM+kKjyGGuZNa9dYrJZ2SUmVP4QsQxwmNFcJrO9iwNgZ5ECLf56qOWUqTxzqV8BYJR+fZhIMEw0yo8+roAgckBnr1QmH+6HOpKtPnIVGH2V1oMPdUfAnbERB1M+ydYwe/wOkNkass/M2QFYpK2hjvVpnCWfj+8JAGkqh1sLAhBGOdPAWcTOnI3OyqXj/mtsRUgulTo3FLu9C1tyjNXSmnwl0D1kiUj2JdHAFcVp3M/sJDVym/PJfsPG9l82t137LSEp0VwwW0ujEs/jCrNy2UTirS2hHlajbGoZmyJFQCSR9uwPGQGZuVVRZhsf1NJBpzqAkXGqkyN2G2cWaWdSWI1aokrMuRqYz2uwkaaYDpt/q3NJd2uRD2LS7nxbMOwPTp5MCXhXhhO8Y7BIh4Yta+x6iJeGdlnrwbVBYCcctuaub1hDMWzTnTNlxLB1/nXksEMZEpzaWzjYk/ffBq53QclnHkXF2vn6TnGLOmYCEgHFbjiGJlKbih+DhsYnlaY4Qro9m+EPE5LbB+ofhQA0+slikx87e6PvHw7PZ2SnU9Pt7FmN/e5H1Pv2/sP7F9tv56enywff/f/xC6//6fJ1OH36Dw==);lineShape=1;sketch=1;hachureGap=4;jiggle=2;curveFitting=1;fontFamily=Architects Daughter;fontSource=https%3A%2F%2Ffonts.googleapis.com%2Fcss%3Ffamily%3DArchitects%2BDaughter;fontSize=20;" vertex="1" parent="1">
          <mxGeometry x="745.7198538705632" y="649.501300381341" width="121.94830811286894" height="64.79344411170233" as="geometry" />
        </mxCell>
        <mxCell id="4voXkl5ULgdugDF2-I-0-67" value="" style="shape=stencil(lVjZctswDPwav2JA8H5O0//ITJzaUzfOOO7194WqoRyC1sZ+k+VdEsSxALXxD++7p7ftRvj9fDp+3/7eP593G/9lI7J/3W1P+7M+bfzjxj+8HE/bb6fjz9fn+ffb04Scnn4cf00r/Jl5TDlOJOG/84scKNT/b77O+MP+9QO+ki8dPiWKAO9KW64RoqdS1gkSKPc7hAh38ELOdQSfqHpAqFS4I0hpS1wlhExZOoKrJLxOiJFc7glMEtYJian2hEQBHCFFKr1XAxWAz9yWu+BdAvhAsbcHBy2X5o8LPud1fHEUksULwGtSDuuDiJVM7A1eQA6Vau0RSmD96mwKOaoR4D3VYPDI/7US9/YwMUg4xXuLzyBeik/WP4ztKb39WvV4/ToUQAUEx8sBF4bmOApBbUW+hIwpohhUKyyT1GCnxv7Qkpsb1ghiskj9jAiF6kCoyKRCyRD0DSaEXhwlwkpWghi3CjEoTSW4nuAyhfsI0tTmRpNyy64bzxygvI9Oda3J3Rg1zV3UMoe0YPI4UW3ekbsrsSMUu7FyVP3A+tdqUz36yQ6m/FXQcDEbfVFBCphgBEwVqeLa9EOpCd6Bx9rEh76TMDQFLWbUxceuowQGh77S1jJ51AeHvqluva8xK8EjwtD5JwLIvnG0mGYjELhxdpmaFfDSNBwFSyjAJJ2+qli3IgVLbnCrJh/wkg6QYuYvbdBgBx1RS29SwKLhl0aziIaDJumYLf0OOrQKMElV1+yQ8KH1qpD6HXKGg7xmd+8kLRABws0tqpehBI9VbBvDpFMg9XgwqMB2rn2gb1RVyxPizbWixtZLV/Bs8AIvd9xEuuFVQNBINfSFkpoH1vB9GRTfSm/tvMYebrK/greDQoEaz00MF3xqEVnBxz4fcoT6e+/l+nO8Plxu8i/7w2H+EPDxf3vz11fzVwP/+A8=);lineShape=1;sketch=1;hachureGap=4;jiggle=2;curveFitting=1;fontFamily=Architects Daughter;fontSource=https%3A%2F%2Ffonts.googleapis.com%2Fcss%3Ffamily%3DArchitects%2BDaughter;fontSize=20;" vertex="1" parent="1">
          <mxGeometry x="967.9416875444479" y="656.039820517848" width="78.24838566958458" height="4.921254436403615" as="geometry" />
        </mxCell>
        <mxCell id="4voXkl5ULgdugDF2-I-0-68" value="" style="shape=stencil(lVnZUhsxEPwav06NbumZkP+gChNcIZgCcv19ZuOSbc3YLe+bMd1eaY6eYzfh7uP54W278fzx+b7/vv29e/x83oQvG+93r8/b992nfNqE+024e9q/b7+973++Ph7+fntYkMunH/tfyy/8OfBao5oXlue/h2+YYv3/xdcD/mX3eoavibgO+EC+XMeXRLEM+ATxOZNvA75Q8tfxqVDgAe+YPCDESlER8A1Co5RGQqacAOH4e50gNvUBEJjSeGcfybnrBN8ohpFQyYMjyb/bSAieAnCzEIobCZlShIQ8EiJTxoQ0WilGysBxCyGOhNpj6yphvHRy1PClNUGinTHBj4QyvcNIyExu1ROyh/l5gRCprHtCptpWEerUrCOhMLVVTyiBeB0hkVtHKOQn0aoIjXgSfCOhMpW8iuDJY0IbhayGnoPXVEMJWY1UkZAZXRL1r0gqnU6gmvETvK4OtVABCSTayqPM1KNSXSMoqaxtRsijlRp2nBDqWBGbowKCL8QezEeCp4qOJNVgrNEt9Kp9jeDVkSLM6YWgjpSoIccdReVIyPhIkpCjH6TziMjTciSnCSi8l+BLmlBQihYdGkJoSCq9LuwLASjf0iiMOe2YYUVxjjibRwC75q5zZ3jkB0/JWBUlnHSDBp9AYBzL2Rk+gPM4bSHBO2DS2DPlDM/g/PL0sWloIpsgipwEdtAEJGEXLDQhiIbymiOJDAdjI3RnUSTrZGRUSU42mYC8tqS/ORIKCxF662cUd0t1i5oAAzv2enxj5riqrTRNTq9npUn+FyOSWGDEb9UYCSiYtFHGqEgij9e7UYPX47Wg4qLAVJWPcdXhnlg3ljXu3rmxbor4qvPgwux6g3Zj5XcUlVjj1sLp+Jn0Lp6caiFxcyRJua770jPepL2LpuHE/WMy/SZuUHPv2W/sgE05nrTYFo/9ZfCTIcHi8RRi8XjMsXg8R1k8HtQMfjIJWjweNS0ez7IWj4flrON5Mo0b/GTct3i8T7B4vLAw+MlGxNhnsnLJehSa7HSy7p0mS6Os69dkK1UoqMUaXntVPV0uezXcfavudelnkaAX3ZpJy5/QLiTrTmvZPqKWQCJ+1DgnRwI2jaGH/GmBimp28voKoilIc13/udMCGJ1nWQCPeO4t+WV81kMWQx+LZJaq8A5otEhy1b+PNFFKhNoXc+8Sri3IVVHivrK4jK99XX2GBwEhLYYz5wf+lZanOY0H9mlmAc+9q7iMr3o5gVPm1EKe+RfN0Gy6UIYisfaNxhwvH06vT552Ly+Hty/n/9evW+Srw6uacP8P);lineShape=1;sketch=1;hachureGap=4;jiggle=2;curveFitting=1;fontFamily=Architects Daughter;fontSource=https%3A%2F%2Ffonts.googleapis.com%2Fcss%3Ffamily%3DArchitects%2BDaughter;fontSize=20;" vertex="1" parent="1">
          <mxGeometry x="1118.1224532775113" y="478.37175688147863" width="5.074176960255398" height="153.87112711998043" as="geometry" />
        </mxCell>
        <mxCell id="4voXkl5ULgdugDF2-I-0-69" value="" style="shape=stencil(rZrbbhs5DIafxreEJOp43Xbfo0DTjdE0KdLs6e2XWq8mFjnzywZ6Z3v0jSSeRFI+8Yefj59/PJyC+/n2+vLt4a/zl7fHE388hXB+fnx4Pb/JpxN/OvGHry+vD7+/vvzx/OXy/cfnPrJ/+v7yZ3/D3xfOEZcOBffP+MG5/3747TL86fx8NZwpzsM9eT4enimlaThT9sfDK+X57YlqOh7uPbk2ja+UChjP4/G2ek8FLN9n8vP6faIENuArxToDjRjMIOJWEuoiigAIxPMMoQyp7QOR/Aywp1QBkKi5GUiUGwBkAUrLjXIAQKM46y0yFQDIikOeAbxpZnJxtiTRNNg0R6oKSBSA7XE2tlqpIUBMw09ADtCWonjiLNaciIGUoqc8Ky5XckBKInU3i7U4PEPUiitheMg+ILbEM8DQ+ESvUS0pwhgQReqzeZc0xLALJONxJcM9pKCjjABwBvHgrIECHEhMTbmoABUoLhnjE6ChJVXy3gBA06npQL8AsqNqNt3Q0RC0T68AiRHxLkA8ONwFiJruW1Ilvm9JbQjxRqBIrL4PEJ82tgSBOGL1rUAeR/6tQKF0l5RKvVNK1VEwLgoBPw7ZW4FA7b4ZollSGanWPiCZhQIqBTRDNh63nav7gASBedMiNxQ1qrxPAQEG4+aozGFGdoXSyeapztZaCwWQ/jSjh7pFqn0g6kxA5gwgkAmgZmj4nG5pxOoNkCwZbTprKcmcHm1aDsWkAUZ6aJSyBv4/V4+A4jSAMnUB6hwERAwOWKsAzQAoq+yA0oNUE0Cs3m2ly0YUrAiZQmlOXA4Zk+xarakN8zqUa9XAQq4ql+6LxDMkbwCQYcljVfH1ReIZglkSCkzy2GctVuhBAszxXhSXsblqYDu6DwG1aclM8ZL0piWbwLakxRqHT92quIgjmTWNSAnroTQNVCwlVfnJpiOOM9qBMgyu+z7qFz5aNdAWcUPZRqWKZ6gKaKtd62DZVnJVJceVHH4VIdmFCU0JySnrZsgqlqXRK7kSrEM+FI1gMyzC5dzUJ+lWGR1lA9rCGYcmb1TnYFkjj1XuKlkUcmtJR3ieoWbYlJL3qQRFUscMNi3vK7OUKsNTq2eWs+IkjUOa7rnrHMAlX0bBz2bHklmieGzz7xVgMvwFYGuIFWCqlBVg6qAVYCqtFWBquRVgqsUFYOvRFWAq3hVgauoVYKr2FWD6AivAdB5WgOltLADbPVkBpj/TAdSUMh2gDgCf7j0mCyy6WEkDqKvb+2RmhgiCce/EqabUlk8c9vpYA2iGWHSzXMJCxv1K1QZeVO1RCjFVhOPEMobx+KrB6dCS/NjiBnhoS9x0TS1e7oDiuGqPE6f1aIas28DiUqgjylF3RFOFxy4HXV6K/TLq33vdLE9yZKFbjjYeD6AbC7p4KboZEhm2KkIax/gAuOElsc6mOcFsOgTt0yIGBsbXb/vUbVOBgK/jPmADeHTD94Gs8/t+AYZmYC3WfsUGpOSdlpIP49JtP3UwvZCRlu4He9P4xjdNevn4jsaN28DNiOD1oNNVaIQm57Q9RNiTcaPy2sxnNKYOhjt9mcvA6d0IOpvpQLmbwjBAuzHDPbxicUMQ78MDHq5vxSuWO6vhqJJ3I5l+H+7hYlSkcgut3nWjvxwuH97/PPD1/PR0+e/B9XP9ZwP56fJHBf70Lw==);lineShape=1;sketch=1;hachureGap=4;jiggle=2;curveFitting=1;fontFamily=Architects Daughter;fontSource=https%3A%2F%2Ffonts.googleapis.com%2Fcss%3Ffamily%3DArchitects%2BDaughter;fontSize=20;" vertex="1" parent="1">
          <mxGeometry x="753.9418409175969" y="734.3720196471963" width="180.91683502382946" height="28.980612518572443" as="geometry" />
        </mxCell>
        <mxCell id="4voXkl5ULgdugDF2-I-0-70" value="" style="shape=stencil(lVfLbttADPwaXQnue/ecpv8RIE5t1LUDx+nj70vVkGxyrZEL5KDIQy7JHQ6pITx9bF/eN4Pnj/Pp+H3za/d63g7hy+D97rDdnHZneRrC8xCe3o6nzbfT8fPwevn//WVEjk8/jj9HD78vdkxiMf7xn8uL5qnkf2++XvD73eEG78lnjWdqbhnvxF1UBqVSKuCAQiEpg+yp8bJBKOSdMkieclg2iIVaUwbRUY7LBqmR00kHnoK8a5AbNZ2Da5RBVYucwNrAUQQh1URJ55DJgWuobSr6nALECwucvjZHFdS0BarN4H0D+NQlTAwK1DJxUHihHcbXZPEo30LJ+keUaNVSQhiB4mlUrH8GpBZ89QbvUfxt6pErvqL4e4ZSxfGYngkwfsdzfnOTUfD4gKq7mPIKXhM0Q90aC6oboKz5LzrhihtG8M7iK8Rnb+KpOJ6UDJ6x/8SmPoz9R12fuFbPaAUFCVYfj1+rT7IEdTh+U09pSOzf3Bev1cfwgScFe5BvPCn2g3yWAQBGTN8vnhLI905DimTjApmOT+RXFMLMbYoreB2PDH6wF/SKOI/xBxW3rsX/f/huAkgDo4aRCWMWIUyIboIVPGG6CVlwA6RJz674iPDdhC9TBy1uENnWE8Q/bijaf5sKtrQBZR2/rJoJdMy4Y2kCuQIXy9y3mCxZ4IRxTzRDMk8qcH8TrcQ6B3mDxvy46+pLljNRVa8kmLuywbk37utat6TQqI/9tOfN1yZVBQfIHmN0nfEqxLaoV6VZwkeLz6DR5PTOvwfEE7xOQJQAVXSeKzcFQqTodFrwjOMxeGEp9q85J0oQAOfY6kqLlDBeE2hUDlgfo0OC90CI2OqKKM0K4bzFo81mHS8P18/pt91+f/kav/3dfn7Lq8une3j+Cw==);lineShape=1;sketch=1;hachureGap=4;jiggle=2;curveFitting=1;fontFamily=Architects Daughter;fontSource=https%3A%2F%2Ffonts.googleapis.com%2Fcss%3Ffamily%3DArchitects%2BDaughter;fontSize=20;" vertex="1" parent="1">
          <mxGeometry x="1050.8304448746942" y="741.4000631356971" width="267.5379090920043" height="17.338750529805413" as="geometry" />
        </mxCell>
        <mxCell id="4voXkl5ULgdugDF2-I-0-71" value="" style="shape=stencil(nVvbct02DPwav3J4BYnntP2PzMRpPE3jjJPe/r5APZSlpc7qpG+JrD0kSGBx1UN59+3T+6+PDzl++/7y/NvjX08fvn96KD895Pz05dPjy9N3+9dD+fmhvPv4/PL468vzH18+vP7/63t/0//1+/Of/gt/v+JyqOqgHP95fRBDyv89+OX19c9PX46vN3hdyu3XS4jl8HoKY7DXVQ6vl1D09us1aD28XkOrt1+XkI+vS4jx9us96HHvPUi//bqGPg6va6jkZFJCWe1JIsKmGtLx6FMOg1xVklCO8tpPsONMI+SjLqQWBgG86coG6CGT+7XrVwCM0MihmgJUkMHOWQighnEE2CaVKXSbh7gBcoiNACQIAMq8mXNAD+14rLbJzGQY06Y2QAuFaKqr2lGXbJMMUGKIAOAXZ4AejwBTFiJ0SUEAoCGRmy45SDrafpzkcQ4oQQYCNBGAsQOskEJnW2pIGL5JJrTgsfom2T3I3PEGsE0ygHEQrGCqQXSpjJCO92BrMpoxQD2qt61J72Es99DDYDKMRWgjAXasOmlrAyjXVg2jIUAJoMa5gc2TmMITXaopFACkUNkKOeTjPfgTBjDX2Y+AQj2z/Rm94eZOzwEVmc+fMEBD529POrk4+7OCDEINqG66uQGMPInyGSAfla+a/rKLk0UG0y4OkCOgRUpkBhhHE21p0sI5oOOWDMCIzETMRwNqmTpFExHCsFYm294CjOM9tDod8SnAzqSD0Bt5ngMSknEz8iRbMhFRaAmdrWDmcrSH1im3GqCD0HbQ5KbtTMrRgJpSqjTAiAjohIz9EI+qIZFSpQHAT0ui6m2HCKckeRLPLUAbCBhMaJlOdgMUGvMZQGGFSmMNu1dgDQMoW6FPjtgAjfKSASAiE+HH2tEDSafJhqka0L3wdKMtwbqMUDgALE5MW5kBDSQyA3R20zrD2i1jiqEyoRVDh25USZyiaX9KCOgcAI69WwZLTsnMBVcoIRO3awDQVgMosWnTflyhUgMyZYZYozcat5oyD9iSUP9gqoan1GlqKUtE1gfNFO2a2lG9u9LgxA4RZBimGmRLJiJQ5chUvW3H4NhHoSY6IhYEDDDIPdgGINsddSr8OaAiVY42o/FzwBLN2BMWJI6OHsgAgxDZGBgJ2E+wSGAoJn72Eyyf1jivaQdoRJcMUOGUdCY5twCQcBiArpBwBY00hFNTNUVAI/dggF4QwFyWllCgvJSoamjFY1UeVRoAQgfbJKtgaUMiM4AS1TAAJK8mFSNjFSx5KedWA0ARwaSqDNAxY1ceOugWQ26ARotqOiap7ACMjA3QQDWEOkXVaV87AN2SokPxc2Nb0pMtUV0yEgDlsxiNr9AzAljooGu5tdMQzgBj2RJzWQ6AFQblVgMAzSiPyBzQEMDKRQ7oCBhcaAVe0slU5yXgGBd1VeogfIkVwKWWBaCMZ3RhAeU2OjBFeTuHW0YNF7E7h1sIqK1fLSHoeJUHQG82vAewi5BpYfuLYMphgIIAlo3qVlTeAxjhL7UTv3x+EetVU6vucwN7AFOmzSTvB6DNXWxJl+DhQmjFOtzVsZ5ZNb24lWguVGOl4wvl24po96r3WPj7woAGqvcdNtp+1EbXq6ZEI5hSX1GZzFzyXrIU7LBd0fH/ASwswFzESVB24YRk1kvvdXOCtfIrR2qAggDqqpey8VUwIFjquwo3ZOGZi4BGZrC9D5m40MgzQjudDlAEsHTUAQkBNOeQk0g0MeVbypX+hG2pLffQaL3fwvkBp1Q5CVTsf+nWN7yVmemSQrBK9lvSs0+D2JaWOoI/4eloWwCVaWvCUp8ni4zI0mKiia+wFOI84SVCjzWa5qVvA+QlB2dENgY6Oa9d8FoIsIYXHog9eLVlKW3QFToqnxdPWMVIZptyX55hgIaZmReA2LFW9OxDKC+NjLVyL2IxQMRQwOtg5Fi91gglpkKZry9+2kt9ROhesWvuxURyrF6GBqF5008UuXXwaEY6hg52DMxEpaEH8qIu21JBXfKyMatkZ3TsvdHOvywV1M47zm/tsR2AdgkHUqWX73mTA4vrmZJx68hLdvdM6LYZ5A7AeKktNSlvoxD1boJ1NeEJRBO0aVFqD96b/bFmU0O36+0sYkCtYaroDTN20w3jJdlitFsAaCBfNf0qpllXbcWKRCZ80MsA0BW5ao1WLAp485U3wSHzE05kBmhrA5k1/Qpqq/fcmAwZ6z+NZygGgJSmXTQul9mzt2bpOSDiKfmoANOlOHtRG4B32HzIZAGwdlYdqBquv3yKBEJpH9lgAMHgxIdC+KxNXMdO2AjTMr3QEvXTtSKR+egMm7Wpy+hMDIltqeKWrsZ/6jSXDXAxYFSQNWqnU8kGgKafjxwxocsiA+8H1yUi80EvdkppjnVtgHI1Pwe18rpN39wCgC7ZJunEqmL5xzZJJyXHnIvcAJFOL5SOHqjyiMwAkAP5oCKf9oSE42rwUTB08NFKNuK61JeuhjcbVu/LVny5BYBRYx9AZbOYdRG6Um4tBUOHwofVSsGqg4/p8lFjIGMfBGYzsQkrJyXS2LvEZYiWN5Dzkg74uDQbvR/opzMfVssdU3wf+WYrdJzmyTzAsj/DrH5uHNAwmvHBePb5wFKb8dF7/vkATtLz6Tb7M3gg/3yAEFlOSMZJqVNMipli4uMOafkOxZ4wmklLsJ4aLd6ffFlSacLh366sn6Kw6g/6E/uFTBYwjwnlKFpcWqqInTZcFg/NJ083Mtn8wtzd+eGgGyk0Xog4ApdoIXoZluHfXy3dXP5118mvs0w14uwoJ7mIWWekYXzE9k2kEXPEolCkt5qwwsOdfZrF+3tfF/yqjm8G7ImLmmeMe99BZixxXPii9RM/pgQ//gEhf93+8fat4senz59fP3Xc/x2/bbRHr99Flp//BQ==);lineShape=1;sketch=1;hachureGap=4;jiggle=2;curveFitting=1;fontFamily=Architects Daughter;fontSource=https%3A%2F%2Ffonts.googleapis.com%2Fcss%3Ffamily%3DArchitects%2BDaughter;fontSize=20;" vertex="1" parent="1">
          <mxGeometry x="1259.7182253105864" y="214.3756343462219" width="50.49861825880195" height="528.1867538785865" as="geometry" />
        </mxCell>
        <mxCell id="4voXkl5ULgdugDF2-I-0-72" value="" style="shape=stencil(lVhJchsxDHyNrigSXHF2nH+4ynKsimO5ZGX7fTBRURmC46ZyG82gRaCxcxfu3p8f3vY7du/n0/Hr/ufh8fy8C592zIfX5/3pcNanXbjfhbun42n/5XT8/vp4+f32sEguT9+OP5Z/+HXB5UCJFxS735c3nlj+vvh8kX85vK7lmSR18olcBfKRSunkC5UM5BNl6fVxVB0E1NwDInkMiMbiQjlCE3zoAMpR8pCjUHtAwkZ78r4HCAlSyZHvWQqRAn8MSGLdHCpl4DcFuNgBYiAHjE7VOi4WisBoBcSe1uRJMIBN6GViwNKikusAyhuD0FhY6v2g6VFRNrim8RVQoEpLaJh0cBRx8LnehhIoIECiZAC5Rdc2oNjgK1fetgGVUu/p6lpR2AZIi/4rILQM2QQoJ7X3dNUEAjYUT7mntdaWtNsArVq9DeKg40TLlgFo1QAqeees50R1AlbrZw4WUACvwpR7XkWIy8cApb1WC0BVoDBVbwECeNWEMCm34mETETWaoj0C5Vwo7fPaCHACD+GnAA8KzdLSBs9lYDVHm0IKcMBz2gT9EE0RGR1I2AJQOdZqnYyrM2WgUkqNkxUA1e98Le9rADihyGC0qgSaVlUAWwDqEPqZ3UArymoNjQEgwA9LghmjNX5BykkkGTIIleM6lGMFJGC0lvc8JHVFjoutlt6ao4kHV+P5JPrBEQILeODB1QIHGtamVqwjKjhhGwBO8C3lVx0igiIwlPtJC3Lt9Bt7nLeBNGmioc3lN3bp2OL41jGgNbMb54xiw3QyyKj/zRyDJyXdE0xYT2Yxz7biTaY9P1A6mScVYFaNycSqAO6b4WQmVhukV2kydSvAhPVkrl9Y6mexyebgPcVepcluoo5LvR8m288QGZP1qlDqLZjtb3bPmCyIyQ5Jkw00WZ/NVlwSkwnQXB0aTdDBDb3aLMAXANVuPK5Z81E0hGDkM8qxZBsBrrr62bRLTUncN5z9f8SONiazTuFWGcS2mcn4m9pUdps+Wg+S5R/ZqwVnkEd8akULVh/kL11oi+UfxcN/3zdN5fXh3+XW0+Hl5XI3tv5uL8P01eUiLdz/AQ==);lineShape=1;sketch=1;hachureGap=4;jiggle=2;curveFitting=1;fontFamily=Architects Daughter;fontSource=https%3A%2F%2Ffonts.googleapis.com%2Fcss%3Ffamily%3DArchitects%2BDaughter;fontSize=20;" vertex="1" parent="1">
          <mxGeometry x="645.9907608264759" y="-47.65312983312515" width="4.560225044376921" height="97.0441787520599" as="geometry" />
        </mxCell>
        <mxCell id="4voXkl5ULgdugDF2-I-0-73" value="" style="shape=stencil(lVrLchs5DPwaXVEk+D5nk/9IVZy1Kl475TjZzd8HXIUTEdA0RzdZZs8Q7wagU3j37fHj14cTu29vry9fHv49f3p7PIW/Tszn58eH1/ObfDqF96fw7vPL68Pfry/fnz9d/v76sZ/sn/55+dGf8N8F1xrl0lHsfl6+YaYU/v/mwwXwdH6+BlRKzQAqABTyQQM8AiRqaQZ4ah4AIsWoAcUBABsZPKUEAI6S14Df77wJqJVC1YCQASATBwMAMtRI3mkAozcwOSMDA0tXR86olcGVSiWvfClQBGotmaICZMpAhhKpzloKjhj4UgnkeAZEcg0ARMRZ6FCogTfkRmkGRE8VvCEXLUNMVBkAsg6g2KgALeU4nHkAkod2yEFbOkmIojfI86oG/DblbYD4krpSoAKETlWrNRXKwFtTpjZbOjNlYIeUiBWgEgMtyY3jHEDijg7kpa71PAMaVaAlsWuc81JNVMCVYqE0B1DzlBEgGUCGrhEDpVmGXgBAEhDv14AGM1+QCsQaUIClJSCLeUMFIRrSiOArQANCS47gZADoDay9tQOA80naanNMeychAvTKTRe5JaKSu/MdecTkYUTSdW6JiDrXLBE83OEwQkpnuw/hyN8nua8jlA8jtgR2GJFH5BxGJF2Cl4g4/n0Ywfd6ifcjZRxGOF2GV4h2r7ObMiyJraKaNxLrdr6MO97O/lpm4bWIYxoSK7TWoZyjKamwWsSS2dzfwwrsdGRXybvg+U7nTKG0DaRxibhZXmG0iDeJNedYqHJ/fF5V6wKTvtNxINyxAP077XDCBLE+FV/vvA7e3885LG+leM9es7zCfzzwf6f9TUgdqnFOk0q5D75/nu2V0yj0O+eL0SeKXzk/Z7rO9fF5RcYKbEOdznLibx76fzb+HLA+1fk8nrBnL3WfAnslicemzwf4fK/iPcEm2o0+ajvPg4HvnZ/vL2QYtW42HtPCXvr5fjCNvfOz/0hjhu/jlT+LfaG8rJ7PkGk7zVkkHlGzcO/5rRu6krcCfzbEvzg4GIq6l5d4hO3UeNqVfTPwt6wHVRK/qJ6KdHO+En9DPa0hEHWLoIMUZQUwLGgFMERrBTBcbgUwdHEFMIx0BTCkdwUwvHoBsNR9BTDdwQpgGpAVwPQ4K4Bpo1YA06mtAKYZXAFMv1nxqM22tCuAaZpXANOW1y3JHmz8q4Oc3Y4WBODRG8zwom51aHc8YtISnNgEraVSIe/tIx5VCDMksn2IpACMZTCu0aksAPRBmOKmDo6eU9BpJsURtHvDPFWdY12NC1WaEUU7UB5S1dl7NRg2DULA40I7VJUIQdO/PrYNGgDnvFHX3CA9FIgHsasieRLlqCkVTlHUZiWPPm93fK7WGEwMtFS2HcTW6Fe8AmCdBDz2pRK1DFLqE0gCfY2hWhfYifc9yZwDAmTydhEjFQzcx2565DxwC7tK8pDZ2l2VhxawyzA/Ru+3mZjZtnnoQ3ad50dg3D5vRi0Ozo/tQtJBe9mNp4MOZ1eqi1GX2dlu25W980XfH3WmfZzOSp+oc+znVdBjfTZqamVGDcurIrjA1ejV5G+bdcFR1A2AcG/UjNsrCZVGMWBl7swYBLFVqm94qW2sxh6SHesWPfXe5Xer3wqsAfLhz08TPp+fni6/bLj+v/4pg3x1+RlEeP8L);lineShape=1;sketch=1;hachureGap=4;jiggle=2;curveFitting=1;fontFamily=Architects Daughter;fontSource=https%3A%2F%2Ffonts.googleapis.com%2Fcss%3Ffamily%3DArchitects%2BDaughter;fontSize=20;" vertex="1" parent="1">
          <mxGeometry x="69.70711133959708" y="-53.94526849698377" width="340.64989778134577" height="10.145280709715735" as="geometry" />
        </mxCell>
        <mxCell id="4voXkl5ULgdugDF2-I-0-74" value="" style="shape=stencil(nVvJcls3EPwaXlHYl7Pj/IerLEeqKJJLlrP8fQZhASJ6yH5EbhLZ/YhlMEtj3il8+vH45fvDydsf72+vvz/89fT1/fEUfjl5//Ty+PD29C5/ncLnU/j07fXt4be3158vX8//f//Skf2vP17/7E/4+8xrpthO8vaf8wfW+PDfB7+e4c9PLws8uwXujLUMHjPAW6VP9wvcm0zhsSzwYJJn8LAOJpoYGdzXBZ5MpFP169iziY7B3fr0cgRPC7yaSKfq1sG0g6k62FVrEp2rW43GOZMKw9u24mVjOX5dHBdMpeNBfDQ1U/xqOC6Z2nbw2TS6nogvpm09Xz7ZGb+cWketB/HOuK3n+2Hdd+KD8Xx/AR9N2Hp+Mn5nPeUw+q31KZvrKfubdvDV1B376W56Z32CNZmfF8A7E3fWM3gTdvY3hL39CtG4reen8cnd+K3zG7IpW+MvB4EL8XVEvjvxzaSd8xvtQWREvDvw/4j3e/YTwwjdd+IlVJP1lHBlw0qQYE0OpMSruEa8mGl0l4DVIHkoJpBESSJQWmNerCPkXyeIi1pDfJRlYHMQn+OR0MiQJEhAmEzWVEbwI2uYBEfjtrh9WKXkqaGKH4fMIAW60+LI07rTSUIHOcp+RtJJSDTDFdcGxpcyDZbiSzBRLGOhrxMqZmeJpwdyegv8QjWNWKscL0h1U6MOTI5LW89DttSDifW3dUjZURcm1l/XZc2exigxZjgPmaf3QqirLWU5gySKi/Vn+IVE3Z5YfwRC5gQJe+sByoU6ypTUL1Q+hzISiUmQ0EC8huxrWHe6yDKQ85Bn6J4EZwojZGNX8y7eVDYkCX7rHIr4EeJmZAB+rT/K9CPXCX5Y/yTksTPXCWHkc5NQaMZT4nC9k1CpaciIKxAa3ekyU9hZAkpQZ3PIY8ST4EY5fp1QMChWnubJFCsQeJ4nIw6r16iS6JE5yACsQwLL3GQAcB5qMplMWr4u8At5OM/rhIKKiRCYqFHb8KSTUHj2Ju4ein2JGEyUcSY0JNB80mPIqo0eoCb7mpFAK/6IcojMiqboaWT8F4TEhpRRhJBlcCxpLWhLjYcsIUDIknWjZUlF0xACrdtUctIOCiUVFIXAUrimRC/ZGWbeQogBCVQbaSMqT0Ia5niTUJDAshkhZCBkXn42PEBCoPV2Q68hex/4kJpFQuFDgnxJjMUT03DWDmV1MtqIkzeXySGhsK2uqJ/2dWCEjL6yT4sNaSZglwRmG14pix/rcMu7lqh+grnjMuLBJYHshLh3qFH6MpEzJyHFKQJzA0JANzD38s6g1Q8VW6WCRU0/53xZtfWxerfHIEWgriyMNbmXoPLKoyEVTOIOJt2ft7Ws3XK2Nq5bjpoDjRAV88oD4+uOa8u8mypfDw6QnNGGtwX8jLZ5m3CnG5D0RRsTTfvySIXvdGVyguKWs+xnVO0cc8f/iwBz4CGi+xn4BR6Eqs6xeJgTgleRlwVSIYSIBBaq+z4AgScDnVCRwNINISTwAjyh6QSdMvE5oPGFo1WKHgmB+3t0357vtE6/Pb0BkbopqmyaSX1SmeWABEeqfCk+QZ5pXHgQAlyRCsGx82BxH2qjCX5VsrEQWKElJXrWhRarwduQSi5LOVaDq3y95ytsSEqI67GeywJZ1a/s6rkoN/ORftwST+AavxftXM/BOfD7n2KVUhHoBWKuI95cShvECWSVOxyIJ0IAjbabI1O9lNpSGtU3u9YIhMoJCbXyLmKxSUeUZ7roRPYhe0xnurEwbdCijlDiqMpv6Zug0XYxkSmoWohzY2duibpIsNTzRdXU0iVXJq4XTO+7qEtMI0Yl6paxlbf0fnBk3ViIaUSvulUSJzg16cgJFk2jy/dsDlZJ355679DQkfUrCHZRUzCwizkW4ir7rfJ64lKjSnbwKJ70ixp2/9Wu3OywSz+fhyedhELDrg9YH6dMs0pvUcRKs0K4rlTo6yyeL7mMek4KtMxyKiNL/O7IRXWt6GiZ5RwW1P1qlN5Qg2uNjW50GXZzgWeCa0YJIfJaIOIKxUJlvoDlfb//ZguE2lK/YCfrY/FK5+AGX+N5h4DG8w4EjecdDhrPOygU/qBDQ+O5Yq/xvMNE43kHi8bzDplreCbvazzP8DSeC+Maz6+uNJ53QGk877BS+IMOLo3nHWIazzvQruFZh5vG8w46jecdehrPOwA1nncYajzvYLRYzR50SGo878BU+IMOT43nLSIazztUNZ53wFos6Q46bDWed/Ba1VfOO4Q1nncgW+zGOuhwlm9Be6AN1BbDL2/Ptnhlxpu/LUpevGC3qC7xxnWLkh1vi5/vB0xPeBAYoeeMt/RbbJjhLwxY1VhOhWh1pcZfdrCjN+EDzmMWGAGXqxyWYJZ2jambMUtlnjDq8As4sZmIQi9X9JVqy+EZb3z5YAoebj7ViseDL6R6lYJvU7uyq7Qw2Hyf5gAuf3y8uvPt6fn5/ObP5ff4qo98dH5NKHz+Fw==);lineShape=1;sketch=1;hachureGap=4;jiggle=2;curveFitting=1;fontFamily=Architects Daughter;fontSource=https%3A%2F%2Ffonts.googleapis.com%2Fcss%3Ffamily%3DArchitects%2BDaughter;fontSize=20;" vertex="1" parent="1">
          <mxGeometry x="67.27396731758063" y="-47.54264368646727" width="23.72853223455786" height="499.55145651365547" as="geometry" />
        </mxCell>
        <mxCell id="4voXkl5ULgdugDF2-I-0-75" value="" style="shape=stencil(lVjZUlsxDP2avGq8W3qm7X8wQyiZUsIEuv195aY3xFI44b6Fi46t9UjWJt+8PNw+bzcpvLwe9t+2v3Z3rw+b/GmT0u7pYXvYveqvTf68yTf3+8P262H/4+nu+Pfz7ZAcv77vf44Tfh9xgVofoBT+HD90au3fhy9H8cfd05l4op4m8UYdiFcqPIkz1fy+eKcejTiH98VjoCKTvH4JEQDyou0ZgBkAOuXZgBipJuCfSMkBBNygLkplBiTK6AahkiygghjkTLlaQAdRyJ2iu4HBDSVQdzdIBYBCwQAyBWB0UZWKA3SQeKdEOANEkEs12dwbAOClWimwAwCjq9pgki9igCwKnJUDCEMLJLMJjQKSTzZsBerTCrX5fD1AgHxziUcBhKAxxZmLAtS/67/FyoPze6JkAkCC5MtCVm/+SUif5v3fQVJ3sVyh7Aj04Uht1keg/7m4Og6w8LlZgzVDC+BTZurd3iCgLCUshP5mwv/CviyfqLF1KWBTKbYjFMiNoiEwLlo+vCdfZoMz1keoifVoRA4S4vkCLbIGYqYAMRo1yL0xnKpkQSj3NRQEWQ48BYFhYQ4jZq9q6tYrbpoBEmHnV0Ce/Sr9mg2mgQgvqXIZwAs3nAC4+hVgQs0VFo+wrTYlKEY2qMZzHLSloOnFA0qCTdCrpCMZagne6FhwpJ1bK6QkHzfNJORUlxg6TeF6M5nHlPD5JrWjOvlKfc4xyNp1QB5dqE+dfq7YYCig5av1aYb+05z7QRpT5oep6nhSGiXsJkPEmilXmHUlwLUG0fpc1Xsk4+bgm1uAA5tvnywUVjVoPaKuGgH0hgRy6cKMEWBB+CFGqRtNMX5KGm4FgfNjmAaug8D5OU9TA9GeHyTPivCDo+ooQqCTn4UVAG9ww7Z2OBQIP82rmxiN8+65oIFANvj3iIYaTW/+xTNoA7143JtKMx4C3KttAFa9CxWAHgH+5TkAoEb923YAQH771zP35YgPvs+5wzj4DYACEAv4HYMCEFf6LYYCGlp7uD2JpgbaAPhNjAIKWt24XY9SX0Q3uG2SAgSQq9tWaTkktGKwyzCVLygKdtc2iBIEwa3ytINlKF+d/hEwTKBsHNrhCB1shx7NBcrHWZ9eYB1oKc851yrc/vl3T4Vtwc9hhRjqb/TJBRa+s1czBL3cnD919Mxr4jUWhVC+uu0rNHfV5viquP54W1Lf7x4fjzvu8//bpbZ+Oi7E8+e/);lineShape=1;sketch=1;hachureGap=4;jiggle=2;curveFitting=1;fontFamily=Architects Daughter;fontSource=https%3A%2F%2Ffonts.googleapis.com%2Fcss%3Ffamily%3DArchitects%2BDaughter;fontSize=20;" vertex="1" parent="1">
          <mxGeometry x="88.08289847012452" y="451.44137627921873" width="170.2498249606997" height="2.71722302750004" as="geometry" />
        </mxCell>
        <mxCell id="4voXkl5ULgdugDF2-I-0-76" value="" style="shape=stencil(lVfJctswDP0aXTEEwfWcpv+RmTi1pq6dcdzt7wtWZSPCCijeJApP2B4WTvTwdnx6PUzWvN2ul6+Hn/Pz7TjRp8na+Xw8XOcbP030ONHDy+V6+HK9fD8/L++vT0WyPH27/Ch/+LXgMoJJBWXN7+XEgqO/B58X+dN8XsmnBOXbSh4NJKsAAqBvAQmy0zUIixyQDhAuEJukASIkagERKKoA4YNzgLoGajV4Az6pPrjcAgK48DEgGzAtICBkowAsYGgBAaKS6Uz1fxUQETwqAA8JWwCfeAXAUWoTl0xl1zYgQWqdTq7+YhOAhsPUOsFKjeb1nU18krXMZUhCQ6r02gREpmubiJxr8jcBgSo5VwAt1S6CbcO0isMmglDSj1VExSaMEEgCSNEQJfs4Sl7hNwJGmYaglKiRLmdmt0JWB6FtY8zeqDGJIIo0O8hKhGwAnyXAaVnj+rUSgArAp/p5JyBSbe07TeLeTTjiNAdRVo8e1kIzoUHP23tx7SQG971/s2An85IFuqtPjdqB/2ckQCsebyEM1meAgFKF1gK4fvJdfWpNhqc4ZhkmrY3ZO4v0PjnaiEfluWG09nRGg5UNoDN7nIxPZ7gFWZyd6RklTXvjGXLrb2f+43/1OzcMtLWudu4wDEhDWxIDRJPv7GF41yI7mx4DYgvo7JLc5tPQtlo0tB2vtw9LF/R9u9RlmzbUPSY5mLFOxm35DLZ12NQt7qOxJlhhwCny5OXMMSonnAcj7dE6o+eBNCIfHHhpv2YPz0xyA/5yF4kj8SwjVvBHzVdZN8XsUPkwer/ry/PD+2XyZT6dlrvo+ru8fPLRcnGlxz8=);lineShape=1;sketch=1;hachureGap=4;jiggle=2;curveFitting=1;fontFamily=Architects Daughter;fontSource=https%3A%2F%2Ffonts.googleapis.com%2Fcss%3Ffamily%3DArchitects%2BDaughter;fontSize=20;" vertex="1" parent="1">
          <mxGeometry x="258.795216893667" y="451.4707224077797" width="3.259572316181675" height="54.804902058013795" as="geometry" />
        </mxCell>
      </root>
    </mxGraphModel>
  </diagram>
</mxfile>
